<svg width="79" height="30" viewBox="0 0 79 30" fill="none" xmlns="http://www.w3.org/2000/svg">
<g clip-path="url(#clip0_23_342)">
<path d="M15.0887 29.2057C22.9806 29.2057 29.3783 22.8456 29.3783 15C29.3783 7.15443 22.9806 0.794338 15.0887 0.794338C7.19676 0.794338 0.799072 7.15443 0.799072 15C0.799072 22.8456 7.19676 29.2057 15.0887 29.2057Z" fill="#004740"/>
<path d="M24.3849 19.9126L22.5784 15.7943H23.5671C23.8882 16.6195 24.6947 17.2066 25.6374 17.2066C26.8618 17.2066 27.8571 16.2172 27.8571 15C27.8571 13.7828 26.8618 12.7934 25.6374 12.7934C24.6947 12.7934 23.8882 13.3805 23.5671 14.2057H21.8808L20.4179 10.8724L21.5559 8.95706C21.6751 8.97666 21.7962 8.98786 21.9211 8.98786C23.1455 8.98786 24.1408 7.99844 24.1408 6.78127C24.1408 5.56409 23.1455 4.57467 21.9211 4.57467C20.6968 4.57467 19.7015 5.56409 19.7015 6.78127C19.7015 7.29745 19.8808 7.77256 20.1813 8.14872L19.6301 9.07561L18.3795 6.22495C17.8124 4.93217 16.5514 4.12943 15.0885 4.12943C13.6256 4.12943 12.3656 4.93217 11.7985 6.22495L11.0971 7.82389H8.3864C8.04275 7.04729 7.26156 6.50311 6.35361 6.50311C5.12924 6.50311 4.13397 7.49253 4.13397 8.70971C4.13397 9.92688 5.12924 10.9163 6.35361 10.9163C7.3301 10.9163 8.16105 10.2853 8.45682 9.41257H10.3995L8.29626 14.2057H6.49726C6.17615 13.3805 5.3696 12.7934 4.42691 12.7934C3.20255 12.7934 2.20728 13.7828 2.20728 15C2.20728 16.2172 3.20255 17.2066 4.42691 17.2066C5.3696 17.2066 6.17615 16.6195 6.49726 15.7943H7.59863L3.85135 24.3332L6.29258 25.3917L10.5037 15.7934H11.9112C12.7618 15.7934 13.6041 16.0109 14.3468 16.4235L19.0442 19.0305H14.7402C13.5449 19.0305 12.4595 19.7324 11.975 20.818L9.17135 27.0971L10.6323 27.7411L13.436 21.462C13.6651 20.9496 14.1768 20.6192 14.7402 20.6192H21.2977C19.9193 21.1885 18.4292 22.1854 17.0913 23.8983C16.865 23.8208 16.6218 23.7778 16.3692 23.7778C15.1448 23.7778 14.1496 24.7673 14.1496 25.9844C14.1496 27.2016 15.1448 28.191 16.3692 28.191C17.5936 28.191 18.5889 27.2016 18.5889 25.9844C18.5889 25.5999 18.4893 25.2377 18.3137 24.9222C19.4489 23.4484 20.8029 22.4412 22.3559 21.9119L23.8826 25.3908L26.3238 24.3323L25.0731 21.4816C26.2224 21.4919 27.0008 21.7309 27.0111 21.7337L27.2543 20.9767L27.5003 20.2206C27.4411 20.201 26.167 19.8015 24.384 19.9107L24.3849 19.9126ZM25.6374 14.0292C26.1764 14.0292 26.6139 14.4652 26.6139 15C26.6139 15.5348 26.1754 15.9708 25.6374 15.9708C25.0994 15.9708 24.6609 15.5348 24.6609 15C24.6609 14.4652 25.0994 14.0292 25.6374 14.0292ZM21.9211 5.81052C22.4601 5.81052 22.8976 6.24642 22.8976 6.78127C22.8976 7.31612 22.4591 7.75202 21.9211 7.75202C21.3831 7.75202 20.9446 7.31612 20.9446 6.78127C20.9446 6.24642 21.3831 5.81052 21.9211 5.81052ZM6.35361 9.68046C5.81466 9.68046 5.37712 9.24455 5.37712 8.70971C5.37712 8.17486 5.8156 7.73895 6.35361 7.73895C6.89162 7.73895 7.3301 8.17486 7.3301 8.70971C7.3301 9.24455 6.89162 9.68046 6.35361 9.68046ZM4.42691 15.9708C3.88797 15.9708 3.45042 15.5348 3.45042 15C3.45042 14.4652 3.88891 14.0292 4.42691 14.0292C4.96492 14.0292 5.40341 14.4652 5.40341 15C5.40341 15.5348 4.96492 15.9708 4.42691 15.9708ZM16.3702 26.9571C15.8312 26.9571 15.3937 26.5212 15.3937 25.9863C15.3937 25.4515 15.8321 25.0156 16.3702 25.0156C16.9082 25.0156 17.3466 25.4515 17.3466 25.9863C17.3466 26.5212 16.9082 26.9571 16.3702 26.9571ZM20.6968 18.1288L17.2462 16.2134L18.7475 13.6867L20.6968 18.1288ZM11.913 14.2057H11.2023L14.2397 7.28345C14.4463 6.81394 14.942 6.77753 15.0885 6.77753C15.235 6.77753 15.7317 6.81394 15.9382 7.28345L17.9588 11.8889L15.85 15.4387L15.127 15.0373C14.1468 14.4932 13.0351 14.2057 11.9121 14.2057H11.913Z" fill="#D9F509"/>
<path d="M15.0887 30C6.76877 30 0 23.271 0 15C0 6.729 6.76877 0 15.0887 0C23.4086 0 30.1773 6.729 30.1773 15C30.1773 23.271 23.4086 30 15.0887 30ZM15.0887 1.58867C7.65043 1.58867 1.59807 7.60548 1.59807 15C1.59807 22.3945 7.65043 28.4113 15.0887 28.4113C22.5269 28.4113 28.5793 22.3945 28.5793 15C28.5793 7.60548 22.5278 1.58867 15.0887 1.58867Z" fill="#D9F509"/>
<path d="M34.903 9.61512L35.5227 8.10952H39.424L40.0333 9.61419C40.0859 9.74487 40.1732 9.84941 40.2915 9.92315C40.408 9.99595 40.5338 10.0333 40.6643 10.0333C40.9159 10.0333 41.1084 9.93342 41.2361 9.73646C41.3619 9.54138 41.3788 9.32203 41.2831 9.08121L38.1104 1.55507C37.9987 1.25731 37.7761 1.09956 37.4672 1.09956C37.1743 1.09956 36.9527 1.25544 36.825 1.55134L33.6636 9.05694C33.5603 9.28842 33.5735 9.51151 33.704 9.71873C33.8354 9.92688 34.026 10.0333 34.2711 10.0333C34.3941 10.0333 34.5143 9.99875 34.6307 9.93061C34.75 9.86061 34.841 9.75513 34.9021 9.61512H34.903ZM35.9987 6.95208L37.4888 3.33136L38.9554 6.95208H35.9997H35.9987Z" fill="#004740"/>
<path d="M46.5699 10.0445C46.7689 10.0445 46.9332 9.98008 47.0572 9.85221C47.1802 9.7262 47.2421 9.56565 47.2421 9.37616V6.22122C47.2421 5.9664 47.3116 5.73957 47.4496 5.54449C47.5896 5.34661 47.7811 5.18606 48.0205 5.06658C48.2609 4.9471 48.5341 4.88643 48.8318 4.88643C49.1595 4.88643 49.4543 4.94897 49.7059 5.07218C49.9538 5.19353 50.1538 5.38208 50.3003 5.63223C50.4486 5.88425 50.5228 6.21748 50.5228 6.62352V9.37616C50.5228 9.56658 50.5876 9.72713 50.7143 9.85314C50.8411 9.98008 51.0035 10.0445 51.1941 10.0445C51.3847 10.0445 51.5472 9.98009 51.6739 9.85407C51.8016 9.72713 51.8655 9.56658 51.8655 9.3771V6.62445C51.8655 5.9916 51.7425 5.44835 51.4983 5.01058C51.2542 4.57094 50.9153 4.23211 50.4909 4.00435C50.0693 3.77753 49.5857 3.66272 49.0543 3.66272C48.5229 3.66272 48.0787 3.77567 47.6675 3.99875C47.5107 4.08369 47.3661 4.1817 47.2337 4.29091C47.2168 4.13597 47.1558 4.00622 47.0525 3.90354C46.9285 3.78033 46.7652 3.71873 46.5671 3.71873C46.3689 3.71873 46.215 3.78033 46.0882 3.90261C45.9605 4.02582 45.8948 4.18824 45.8948 4.38705V9.3771C45.8948 9.56751 45.9596 9.72806 46.0863 9.85407C46.2131 9.98102 46.3755 10.0454 46.5661 10.0454L46.5699 10.0445Z" fill="#004740"/>
<path d="M57.2631 3.71873C57.0725 3.71873 56.911 3.78034 56.7842 3.90261C56.6556 4.02583 56.5908 4.18824 56.5908 4.38706V9.3659C56.5908 9.55632 56.6556 9.71686 56.7824 9.84288C56.9091 9.96982 57.0716 10.0342 57.2622 10.0342C57.4528 10.0342 57.6255 9.96982 57.7495 9.84194C57.8725 9.71593 57.9344 9.55538 57.9344 9.3659V4.38706C57.9344 4.19011 57.8715 4.02769 57.7476 3.90448C57.6236 3.78127 57.4603 3.71966 57.2622 3.71966L57.2631 3.71873Z" fill="#004740"/>
<path d="M57.2634 2.91786C57.4916 2.91786 57.6916 2.83478 57.8559 2.67144C58.0202 2.50809 58.1038 2.30927 58.1038 2.08245C58.1038 1.85563 58.0202 1.65681 57.8559 1.49347C57.6916 1.33012 57.4916 1.24704 57.2634 1.24704C57.0353 1.24704 56.8353 1.33012 56.671 1.49347C56.5067 1.65681 56.4231 1.85563 56.4231 2.08245C56.4231 2.30927 56.5067 2.50809 56.671 2.67144C56.8353 2.83478 57.0353 2.91786 57.2634 2.91786Z" fill="#004740"/>
<path d="M67.3879 9.95582C67.5362 9.83447 67.6179 9.68979 67.631 9.52458C67.6442 9.36123 67.5935 9.20815 67.4799 9.06907L65.3607 6.47604L67.3578 4.70348C67.4893 4.58214 67.5597 4.43933 67.5691 4.27971C67.5775 4.11823 67.5202 3.96982 67.3991 3.84101C67.2836 3.70939 67.1419 3.63752 66.9757 3.62819C66.8085 3.61979 66.6583 3.67672 66.5278 3.79807L63.9561 6.07934V1.74642C63.9561 1.556 63.895 1.39919 63.7758 1.28064C63.6556 1.16117 63.4979 1.10143 63.3072 1.10143C63.1166 1.10143 62.958 1.1621 62.8387 1.28064C62.7185 1.40012 62.6584 1.55694 62.6584 1.74642V9.3883C62.6584 9.57872 62.7195 9.73553 62.8387 9.85407C62.9589 9.97355 63.1166 10.0333 63.3072 10.0333C63.4979 10.0333 63.6565 9.97262 63.7758 9.85407C63.896 9.7346 63.9561 9.57778 63.9561 9.3883V7.72215L64.4067 7.32265L66.4827 9.87461C66.5973 10.0146 66.7437 10.093 66.9174 10.1061C66.9353 10.107 66.9522 10.108 66.97 10.108C67.1212 10.108 67.2611 10.0566 67.3869 9.95582H67.3879Z" fill="#004740"/>
<path d="M73.6383 9.65526C74.0871 9.93622 74.6007 10.079 75.165 10.079C75.7293 10.079 76.2429 9.93622 76.6917 9.65526C76.8926 9.52925 77.0748 9.3827 77.2391 9.21562V9.37617C77.2391 9.56658 77.3039 9.72713 77.4306 9.85314C77.5574 9.98009 77.7198 10.0445 77.9104 10.0445C78.101 10.0445 78.2635 9.98009 78.3902 9.85408C78.5179 9.72713 78.5818 9.56658 78.5818 9.3771V6.81767C78.5724 6.23896 78.4297 5.70971 78.1583 5.24393C77.8776 4.76136 77.4926 4.37492 77.0147 4.09583C76.5358 3.81581 75.9894 3.67393 75.3894 3.67393C74.7894 3.67393 74.2401 3.81581 73.7585 4.09583C73.2768 4.37586 72.89 4.76229 72.6092 5.24393C72.3275 5.72651 72.1848 6.27723 72.1848 6.88208C72.1848 7.48693 72.3153 8.03298 72.5735 8.51089C72.8317 8.98973 73.1895 9.37523 73.6373 9.65526H73.6383ZM76.3631 8.61637C76.0805 8.78905 75.7528 8.87586 75.3903 8.87586C75.0279 8.87586 74.7096 8.78812 74.4223 8.61543C74.134 8.44275 73.904 8.20193 73.7369 7.9023C73.5697 7.60174 73.4843 7.25825 73.4843 6.88115C73.4843 6.50405 73.5688 6.14935 73.7369 5.84879C73.904 5.54823 74.134 5.30834 74.4223 5.13566C74.7096 4.96298 75.0345 4.87523 75.3903 4.87523C75.7462 4.87523 76.0805 4.96298 76.3631 5.13472C76.6466 5.30741 76.8738 5.54729 77.0372 5.84785C77.2015 6.14935 77.2842 6.49658 77.2842 6.88115C77.2842 7.26571 77.2015 7.60174 77.0372 7.90324C76.8738 8.2038 76.6466 8.44368 76.3631 8.61637Z" fill="#004740"/>
<path d="M39.5262 18.3967V12.9269C39.5262 12.7803 39.4792 12.6571 39.3872 12.5629C39.2943 12.4676 39.1713 12.4191 39.0229 12.4191C38.8746 12.4191 38.7591 12.4667 38.6605 12.561C38.5619 12.6562 38.5112 12.7794 38.5112 12.9278V17.0834L35.1245 12.6049C35.0202 12.4826 34.8879 12.42 34.7311 12.42C34.5883 12.42 34.4672 12.4686 34.3714 12.5629C34.2757 12.6581 34.2278 12.7803 34.2278 12.9278V18.3976C34.2278 18.5395 34.2757 18.6609 34.3705 18.7579C34.4663 18.8559 34.5874 18.9063 34.7311 18.9063C34.8747 18.9063 35.0043 18.8569 35.1001 18.7579C35.1949 18.6599 35.2428 18.5395 35.2428 18.3976V14.2505L38.6276 18.7262C38.6755 18.7869 38.7384 18.8335 38.8154 18.8634C38.8877 18.8914 38.9572 18.9054 39.0229 18.9054C39.1722 18.9054 39.2952 18.855 39.3882 18.7561C39.4792 18.659 39.5262 18.5376 39.5262 18.3967Z" fill="#004740"/>
<path d="M45.1503 18.4051V14.8021C45.1503 14.6546 45.1033 14.5333 45.0104 14.4409C44.9174 14.3485 44.7954 14.3018 44.647 14.3018C44.4987 14.3018 44.3841 14.3485 44.2883 14.4399C44.1926 14.5324 44.1437 14.6546 44.1437 14.8021V17.0806C44.1437 17.2551 44.094 17.4147 43.9973 17.5557C43.8977 17.6994 43.7625 17.8142 43.5954 17.8992C43.4273 17.9841 43.232 18.0271 43.0142 18.0271C42.7851 18.0271 42.5767 17.9823 42.3945 17.8945C42.2171 17.8086 42.0734 17.6733 41.9692 17.4932C41.864 17.3111 41.8105 17.074 41.8105 16.7894V14.8021C41.8105 14.6602 41.7617 14.5398 41.6668 14.4446C41.5711 14.3494 41.4499 14.3018 41.3072 14.3018C41.1645 14.3018 41.0434 14.3503 40.9476 14.4446C40.8518 14.5398 40.804 14.6602 40.804 14.8021V16.7894C40.804 17.2495 40.8941 17.6444 41.0706 17.9636C41.249 18.2847 41.4959 18.5311 41.8049 18.6973C42.1119 18.8625 42.464 18.9465 42.8508 18.9465C43.2377 18.9465 43.5691 18.8643 43.8649 18.701C43.9682 18.6441 44.0639 18.5806 44.1531 18.5087C44.171 18.6067 44.216 18.6917 44.2874 18.7626C44.3832 18.8578 44.5034 18.9054 44.647 18.9054C44.7907 18.9054 44.9184 18.8569 45.0113 18.7617C45.1033 18.6674 45.1503 18.547 45.1503 18.4051Z" fill="#004740"/>
<path d="M49.2687 16.4449C49.0265 16.318 48.6941 16.2116 48.2819 16.1294C47.9955 16.0716 47.7768 16.0118 47.6312 15.9521C47.4988 15.8979 47.4078 15.8373 47.3674 15.7757C47.3251 15.7122 47.3045 15.6422 47.3045 15.5619C47.3045 15.4396 47.3674 15.3519 47.5026 15.2856C47.6547 15.2109 47.8453 15.1736 48.0688 15.1736C48.265 15.1736 48.4387 15.1969 48.587 15.2427C48.7298 15.2866 48.8659 15.3696 48.9917 15.4891C49.0856 15.5759 49.2011 15.6329 49.3373 15.6571C49.48 15.6833 49.6058 15.659 49.7156 15.5843C49.8236 15.504 49.8818 15.4014 49.8894 15.28C49.8959 15.1624 49.8527 15.0504 49.7645 14.9487C49.5927 14.7386 49.3598 14.5725 49.0706 14.454C48.7852 14.3373 48.4537 14.2775 48.0857 14.2775C47.8002 14.2775 47.5232 14.3242 47.2594 14.4157C46.9918 14.509 46.7693 14.6528 46.5965 14.8441C46.42 15.0401 46.3299 15.2903 46.3299 15.5862C46.3299 15.9241 46.4641 16.2125 46.7298 16.444C46.9871 16.6689 47.4012 16.8388 47.9636 16.949C48.3702 17.0218 48.6518 17.1142 48.8002 17.2234C48.9363 17.3242 49.0002 17.4381 48.9964 17.5697C48.9917 17.7013 48.9223 17.8068 48.7823 17.8936C48.6321 17.9869 48.4058 18.0336 48.1101 18.0336C47.8744 18.0336 47.6584 17.9916 47.4669 17.9076C47.2763 17.8245 47.1373 17.7349 47.0528 17.6416C46.9627 17.5454 46.8528 17.4894 46.727 17.4726C46.5965 17.4558 46.4669 17.4988 46.3411 17.5996C46.2294 17.6845 46.1646 17.7956 46.1486 17.93C46.1317 18.0672 46.174 18.1904 46.2754 18.2978C46.4622 18.4844 46.727 18.6394 47.0594 18.7589C47.3899 18.8774 47.7542 18.9381 48.142 18.9381C48.5298 18.9381 48.8744 18.8755 49.142 18.7523C49.4133 18.6273 49.6227 18.4564 49.7635 18.2446C49.9053 18.0317 49.9776 17.789 49.9776 17.5249C49.9776 17.2943 49.9213 17.0871 49.8095 16.9088C49.6987 16.7324 49.5166 16.5756 49.2678 16.4449H49.2687Z" fill="#004740"/>
<path d="M54.9676 15.42C54.7629 15.0691 54.4831 14.7881 54.1357 14.5846C53.7874 14.3811 53.3893 14.2775 52.9527 14.2775C52.5161 14.2775 52.117 14.3811 51.7659 14.5846C51.4156 14.7881 51.134 15.0691 50.9293 15.42C50.7246 15.771 50.6204 16.1724 50.6204 16.612C50.6204 17.0516 50.7152 17.4493 50.903 17.7965C51.0908 18.1456 51.3518 18.4256 51.6776 18.6291C52.0044 18.8335 52.379 18.9371 52.7893 18.9371C53.1996 18.9371 53.5742 18.8335 53.901 18.6291C54.0343 18.5451 54.1573 18.449 54.2691 18.3398V18.4126C54.2691 18.5554 54.3179 18.6749 54.4127 18.7701C54.5075 18.8653 54.6287 18.9129 54.7723 18.9129C54.916 18.9129 55.0362 18.8643 55.1319 18.7701C55.2277 18.6749 55.2756 18.5554 55.2756 18.4126V16.5532C55.2671 16.1369 55.1629 15.7551 54.9676 15.42ZM53.6456 17.8488C53.4437 17.9711 53.2109 18.0336 52.9527 18.0336C52.6945 18.0336 52.4672 17.9711 52.2635 17.8488C52.0588 17.7256 51.8945 17.5548 51.7752 17.3401C51.656 17.1254 51.595 16.8808 51.595 16.6111C51.595 16.3413 51.6551 16.0884 51.7752 15.8737C51.8945 15.6599 52.0588 15.4882 52.2635 15.365C52.4682 15.2418 52.7001 15.1801 52.9527 15.1801C53.2052 15.1801 53.4447 15.2427 53.6456 15.365C53.8475 15.4882 54.009 15.659 54.1263 15.8727C54.2437 16.0874 54.3029 16.3357 54.3029 16.6101C54.3029 16.8846 54.2437 17.1254 54.1263 17.3401C54.0099 17.5538 53.8484 17.7256 53.6456 17.8479V17.8488Z" fill="#004740"/>
<path d="M59.6797 14.5184C59.3727 14.3531 59.0206 14.2691 58.6337 14.2691C58.2469 14.2691 57.9229 14.3513 57.6244 14.5146C57.5201 14.5716 57.4225 14.636 57.3333 14.7069C57.3164 14.6052 57.2723 14.5184 57.2018 14.4484C57.1089 14.3559 56.9868 14.3093 56.8385 14.3093C56.6901 14.3093 56.5756 14.3559 56.4798 14.4474C56.384 14.5398 56.3352 14.6621 56.3352 14.8096V18.4135C56.3352 18.5563 56.384 18.6758 56.4789 18.771C56.5746 18.8662 56.6948 18.9138 56.8385 18.9138C56.9821 18.9138 57.1098 18.8653 57.2028 18.7701C57.2948 18.6758 57.3417 18.5554 57.3417 18.4135V16.135C57.3417 15.9549 57.3906 15.7943 57.4882 15.6562C57.5877 15.5152 57.7239 15.4014 57.8938 15.3164C58.0647 15.2315 58.2591 15.1886 58.4722 15.1886C58.706 15.1886 58.9163 15.2334 59.0957 15.3211C59.2713 15.407 59.413 15.5414 59.5173 15.7187C59.6224 15.8979 59.6759 16.136 59.6759 16.4253V18.4126C59.6759 18.5554 59.7248 18.6749 59.8196 18.7701C59.9144 18.8653 60.0355 18.9129 60.1792 18.9129C60.3229 18.9129 60.443 18.8643 60.5388 18.7701C60.6346 18.6758 60.6825 18.5554 60.6825 18.4126V16.4253C60.6825 15.9652 60.5923 15.5703 60.4158 15.2511C60.2374 14.9309 59.9905 14.6836 59.6816 14.5174L59.6797 14.5184Z" fill="#004740"/>
<path d="M62.2036 13.0426C62.1106 13.135 62.0637 13.2536 62.0637 13.3955V14.4708H61.7783C61.6421 14.4708 61.5285 14.5109 61.4421 14.5912C61.3529 14.6724 61.3079 14.7816 61.3079 14.9141C61.3079 15.0364 61.3529 15.14 61.4421 15.2212C61.5294 15.3015 61.6421 15.3416 61.7783 15.3416H62.0637V17.2486C62.0637 17.5585 62.1304 17.8413 62.2609 18.0896C62.3923 18.3398 62.5745 18.5395 62.8036 18.6851C63.0336 18.8307 63.2956 18.9054 63.5829 18.9054H63.7294C63.8918 18.9054 64.027 18.8606 64.1322 18.771C64.242 18.6786 64.2974 18.5582 64.2974 18.4126C64.2974 18.267 64.2561 18.1549 64.1735 18.0625C64.088 17.9683 63.9829 17.9197 63.8599 17.9197H63.5838C63.4374 17.9197 63.3162 17.8591 63.2139 17.734C63.1069 17.6033 63.0552 17.4446 63.0552 17.2486V15.3416H63.6571C63.7932 15.3416 63.9068 15.3015 63.9932 15.2212C64.0824 15.1391 64.1275 15.0364 64.1275 14.9141C64.1275 14.7816 64.0824 14.6724 63.9932 14.5912C63.9059 14.5109 63.7932 14.4708 63.6571 14.4708H63.0552V13.3955C63.0552 13.2536 63.0083 13.135 62.9153 13.0426C62.8224 12.9502 62.7031 12.9035 62.5604 12.9035C62.4177 12.9035 62.2975 12.9502 62.2055 13.0426H62.2036Z" fill="#004740"/>
<path d="M65.9657 18.6291C66.2924 18.8335 66.6671 18.9371 67.0774 18.9371C67.4877 18.9371 67.8623 18.8335 68.1891 18.6291C68.3224 18.5451 68.4454 18.449 68.5571 18.3398V18.4126C68.5571 18.5554 68.606 18.6749 68.7008 18.7701C68.7956 18.8653 68.9168 18.9129 69.0604 18.9129C69.2041 18.9129 69.3243 18.8643 69.42 18.7701C69.5158 18.6749 69.5637 18.5554 69.5637 18.4126V16.5532C69.5552 16.1369 69.451 15.7551 69.2557 15.42C69.051 15.0691 68.7712 14.7881 68.4238 14.5846C68.0755 14.3811 67.6774 14.2775 67.2408 14.2775C66.8042 14.2775 66.4051 14.3811 66.0539 14.5846C65.7037 14.7881 65.422 15.0691 65.2174 15.42C65.0127 15.771 64.9084 16.1724 64.9084 16.612C64.9084 17.0516 65.0033 17.4493 65.1911 17.7965C65.3789 18.1456 65.6399 18.4256 65.9657 18.6291ZM67.9337 17.8488C67.7318 17.9711 67.499 18.0336 67.2408 18.0336C66.9826 18.0336 66.7553 17.9711 66.5516 17.8488C66.3469 17.7256 66.1826 17.5548 66.0633 17.3401C65.9441 17.1254 65.8831 16.8808 65.8831 16.6111C65.8831 16.3413 65.9432 16.0884 66.0633 15.8737C66.1826 15.6599 66.3469 15.4882 66.5516 15.365C66.7563 15.2418 66.9882 15.1801 67.2408 15.1801C67.4933 15.1801 67.7328 15.2427 67.9337 15.365C68.1356 15.4882 68.2971 15.659 68.4144 15.8727C68.5318 16.0874 68.5909 16.3357 68.5909 16.6101C68.5909 16.8846 68.5318 17.1254 68.4144 17.3401C68.298 17.5538 68.1365 17.7256 67.9337 17.8479V17.8488Z" fill="#004740"/>
<path d="M73.3321 15.211C73.4138 15.2296 73.4917 15.2334 73.5631 15.2203C73.6382 15.2063 73.7058 15.1736 73.7649 15.1232C73.825 15.07 73.8663 14.9953 73.8851 14.9057C73.918 14.7788 73.9067 14.593 73.6654 14.4344C73.4889 14.3186 73.2354 14.2626 72.8889 14.2626C72.5424 14.2626 72.2345 14.3429 71.9518 14.4997C71.827 14.5688 71.7134 14.65 71.6101 14.7414C71.5997 14.6126 71.5584 14.5109 71.4843 14.4381C71.3998 14.3541 71.2758 14.3111 71.1171 14.3111C70.9585 14.3111 70.8411 14.355 70.7538 14.4418C70.6664 14.5286 70.6223 14.65 70.6223 14.8031V18.4144C70.6223 18.5731 70.6674 18.6973 70.7547 18.7813C70.842 18.8643 70.9641 18.9073 71.1171 18.9073C71.2702 18.9073 71.4007 18.8625 71.4861 18.7747C71.5697 18.6879 71.6129 18.5666 71.6129 18.4144V16.0548C71.6129 15.8289 71.6833 15.6487 71.827 15.5022C71.9734 15.3538 72.1781 15.2511 72.4363 15.1951C72.6992 15.1391 73.0016 15.1437 73.3321 15.211Z" fill="#004740"/>
<path d="M78.9992 16.5532C78.9908 16.1369 78.8866 15.7561 78.6913 15.42C78.4866 15.0691 78.2068 14.7881 77.8594 14.5846C77.511 14.3811 77.1129 14.2775 76.6763 14.2775C76.2397 14.2775 75.8407 14.3811 75.4895 14.5846C75.1393 14.7881 74.8576 15.0691 74.6529 15.42C74.4482 15.771 74.344 16.1724 74.344 16.612C74.344 17.0516 74.4388 17.4493 74.6266 17.7965C74.8144 18.1456 75.0754 18.4256 75.4012 18.6291C75.728 18.8335 76.1026 18.9371 76.5129 18.9371C76.9232 18.9371 77.2979 18.8335 77.6246 18.6291C77.758 18.5451 77.881 18.449 77.9927 18.3398V18.4126C77.9927 18.5554 78.0415 18.6749 78.1363 18.7701C78.2312 18.8653 78.3523 18.9129 78.496 18.9129C78.6396 18.9129 78.7598 18.8643 78.8556 18.7701C78.9513 18.6749 78.9992 18.5554 78.9992 18.4126V16.5532ZM77.3692 17.8488C77.1674 17.9711 76.9345 18.0336 76.6763 18.0336C76.4181 18.0336 76.1909 17.9711 75.9871 17.8488C75.7824 17.7256 75.6181 17.5548 75.4989 17.3401C75.3796 17.1254 75.3186 16.8808 75.3186 16.6111C75.3186 16.3413 75.3787 16.0884 75.4989 15.8737C75.6181 15.6599 75.7824 15.4882 75.9871 15.365C76.1918 15.2418 76.4237 15.1801 76.6763 15.1801C76.9289 15.1801 77.1683 15.2427 77.3692 15.365C77.5711 15.4882 77.7326 15.659 77.85 15.8727C77.9673 16.0874 78.0265 16.3357 78.0265 16.6101C78.0265 16.8846 77.9673 17.1254 77.85 17.3401C77.7335 17.5538 77.5721 17.7256 77.3692 17.8479V17.8488Z" fill="#004740"/>
<path d="M38.2672 26.8787H35.2889V21.6991C35.2889 21.5507 35.2373 21.4238 35.1349 21.322C35.0326 21.2203 34.9049 21.1689 34.7556 21.1689C34.6063 21.1689 34.487 21.2203 34.3847 21.322C34.2824 21.4238 34.2307 21.5507 34.2307 21.6991V27.4098C34.2307 27.5572 34.2805 27.6842 34.38 27.7859C34.4795 27.8886 34.6063 27.9409 34.7565 27.9409H38.2691C38.4184 27.9409 38.5461 27.8895 38.6484 27.7878C38.7507 27.6861 38.8024 27.5591 38.8024 27.4107C38.8024 27.2623 38.7507 27.1353 38.6484 27.0336C38.5461 26.9319 38.4184 26.8805 38.2691 26.8805L38.2672 26.8787Z" fill="#004740"/>
<path d="M43.8917 24.3015C43.6776 23.9347 43.3856 23.6416 43.0231 23.4288C42.6598 23.2159 42.2438 23.1086 41.7885 23.1086C41.3331 23.1086 40.9162 23.2159 40.55 23.4288C40.1838 23.6416 39.8899 23.9347 39.6768 24.3015C39.4627 24.6683 39.3547 25.0865 39.3547 25.5457C39.3547 26.005 39.4543 26.4194 39.6496 26.7825C39.8458 27.1465 40.1181 27.4387 40.458 27.6515C40.7998 27.8653 41.1904 27.9736 41.6185 27.9736C42.0467 27.9736 42.4382 27.8653 42.779 27.6515C42.9189 27.5638 43.0466 27.463 43.1631 27.35V27.4266C43.1631 27.575 43.2138 27.701 43.3133 27.799C43.4128 27.8979 43.5386 27.9484 43.6889 27.9484C43.8391 27.9484 43.9649 27.8979 44.0644 27.799C44.164 27.7001 44.2147 27.5741 44.2147 27.4256V25.4841C44.2053 25.0492 44.0973 24.6515 43.8935 24.3006L43.8917 24.3015ZM42.5114 26.8376C42.3011 26.9655 42.0579 27.0308 41.7875 27.0308C41.5171 27.0308 41.2805 26.9655 41.0674 26.8376C40.8533 26.7088 40.6814 26.5305 40.5575 26.3065C40.4326 26.0825 40.3697 25.8267 40.3697 25.5457C40.3697 25.2648 40.4326 25.0006 40.5575 24.7766C40.6814 24.5535 40.8533 24.3743 41.0674 24.2455C41.2805 24.1176 41.5227 24.0523 41.7875 24.0523C42.0523 24.0523 42.3011 24.1176 42.5114 24.2455C42.7227 24.3743 42.8908 24.5526 43.0128 24.7757C43.1349 24.9997 43.1969 25.2592 43.1969 25.5457C43.1969 25.8323 43.1349 26.0834 43.0128 26.3074C42.8908 26.5305 42.7227 26.7097 42.5114 26.8376Z" fill="#004740"/>
<path d="M48.8105 23.3597C48.4894 23.187 48.1223 23.1002 47.7185 23.1002C47.3148 23.1002 46.9768 23.1861 46.6641 23.3559C46.5552 23.4157 46.4538 23.4829 46.3599 23.5566C46.342 23.4502 46.296 23.3597 46.2228 23.2869C46.1261 23.1907 45.9984 23.1422 45.8435 23.1422C45.6885 23.1422 45.5684 23.1907 45.4698 23.2859C45.3693 23.3821 45.3186 23.51 45.3186 23.664V27.4256C45.3186 27.5741 45.3693 27.7001 45.4688 27.7981C45.5684 27.897 45.6951 27.9474 45.8444 27.9474C45.9937 27.9474 46.128 27.897 46.2247 27.7971C46.3204 27.6982 46.3693 27.5731 46.3693 27.4256V25.0473C46.3693 24.8597 46.4209 24.6917 46.5223 24.5479C46.6256 24.4014 46.7683 24.2819 46.9458 24.1932C47.1232 24.1045 47.327 24.0597 47.5495 24.0597C47.7936 24.0597 48.0124 24.1064 48.2002 24.1979C48.3833 24.2875 48.5316 24.4275 48.6405 24.6133C48.7504 24.8009 48.8058 25.0492 48.8058 25.3516V27.4266C48.8058 27.575 48.8565 27.701 48.956 27.799C49.0556 27.898 49.1814 27.9484 49.3316 27.9484C49.4818 27.9484 49.6077 27.898 49.7072 27.799C49.8067 27.7001 49.8574 27.5741 49.8574 27.4256V25.3507C49.8574 24.8699 49.7635 24.4583 49.5785 24.1251C49.3926 23.7909 49.1344 23.5333 48.8114 23.3587L48.8105 23.3597Z" fill="#004740"/>
<path d="M55.4137 24.281C55.2053 23.9169 54.9151 23.6266 54.5518 23.4203C54.1884 23.2131 53.7678 23.1086 53.3011 23.1086C52.8345 23.1086 52.4054 23.2131 52.042 23.4203C51.6786 23.6276 51.3885 23.9169 51.1801 24.281C50.9726 24.645 50.8665 25.0706 50.8665 25.5457C50.8665 26.0208 50.9641 26.4362 51.1575 26.7993C51.3509 27.1643 51.6204 27.4546 51.9584 27.6609C52.2965 27.869 52.6917 27.9745 53.1312 27.9745C53.5387 27.9745 53.9039 27.8681 54.2175 27.6599C54.4044 27.5348 54.5696 27.3808 54.7095 27.1988V27.309C54.7095 27.6571 54.6447 27.9549 54.517 28.1938C54.3903 28.43 54.2184 28.6101 54.0062 28.7306C53.7922 28.851 53.5546 28.9126 53.3011 28.9126C53.0222 28.9126 52.7697 28.8612 52.5509 28.7604C52.3331 28.6605 52.1509 28.5187 52.0091 28.3413C51.9274 28.233 51.8185 28.1649 51.6861 28.1378C51.5509 28.1098 51.4204 28.1378 51.2965 28.22C51.1857 28.2956 51.1171 28.3973 51.0927 28.5233C51.0674 28.6512 51.1002 28.7754 51.1923 28.8939C51.443 29.2075 51.7547 29.4493 52.1171 29.6117C52.4786 29.7741 52.8711 29.8563 53.2833 29.8563C53.7621 29.8563 54.1912 29.7442 54.5574 29.5221C54.9236 29.3009 55.2128 28.9984 55.4184 28.6232C55.6231 28.2489 55.7264 27.8261 55.7264 27.3687V25.4795C55.717 25.0314 55.6118 24.6291 55.4137 24.2819V24.281ZM54.0335 26.8413C53.8232 26.9673 53.5762 27.0308 53.3002 27.0308C53.0241 27.0308 52.7781 26.9673 52.5669 26.8413C52.3556 26.7153 52.1875 26.5398 52.0655 26.3195C51.9434 26.0983 51.8814 25.8379 51.8814 25.5457C51.8814 25.2536 51.9434 24.9913 52.0655 24.7673C52.1866 24.5442 52.3556 24.3668 52.5659 24.2418C52.7762 24.1157 53.0232 24.0523 53.2992 24.0523C53.5753 24.0523 53.8213 24.1157 54.0325 24.2418C54.2429 24.3678 54.41 24.5442 54.5283 24.7663C54.6475 24.9913 54.7086 25.2526 54.7086 25.5457C54.7086 25.8388 54.6485 26.0993 54.5283 26.3205C54.41 26.5408 54.2429 26.7162 54.0316 26.8413H54.0335Z" fill="#004740"/>
<path d="M60.2783 23.4194C59.915 23.2122 59.4943 23.1077 59.0277 23.1077C58.561 23.1077 58.1319 23.2122 57.7686 23.4194C57.4052 23.6266 57.1151 23.916 56.9066 24.28C56.6991 24.6441 56.593 25.0697 56.593 25.5448C56.593 26.0199 56.6982 26.4371 56.9066 26.8002C57.1151 27.1652 57.4052 27.4546 57.7686 27.6618C58.1319 27.869 58.5554 27.9736 59.0277 27.9736C59.5 27.9736 59.9234 27.869 60.2868 27.6618C60.6502 27.4546 60.9393 27.1652 61.145 26.8002C61.3497 26.4362 61.4539 26.0143 61.4539 25.5448C61.4539 25.0753 61.3487 24.645 61.1403 24.28C60.9318 23.916 60.6417 23.6257 60.2783 23.4194ZM59.761 26.8413C59.5507 26.9673 59.3037 27.0308 59.0277 27.0308C58.7516 27.0308 58.5056 26.9673 58.2944 26.8413C58.0831 26.7153 57.915 26.5398 57.793 26.3195C57.6709 26.0983 57.6089 25.8379 57.6089 25.5457C57.6089 25.2536 57.6709 24.9913 57.793 24.7673C57.9141 24.5442 58.0831 24.3668 58.2934 24.2418C58.5037 24.1157 58.7507 24.0523 59.0267 24.0523C59.3028 24.0523 59.5488 24.1157 59.76 24.2418C59.9704 24.3678 60.1375 24.5442 60.2558 24.7663C60.375 24.9913 60.4361 25.2526 60.4361 25.5457C60.4361 25.8388 60.376 26.0993 60.2558 26.3205C60.1375 26.5408 59.9704 26.7162 59.7591 26.8413H59.761Z" fill="#004740"/>
<path d="M67.5808 23.1422C67.4024 23.1422 67.1657 23.2206 67.0512 23.594L66.2184 26.1898L65.5329 23.5333C65.5057 23.4185 65.4484 23.3233 65.3621 23.2523C65.2747 23.1795 65.1621 23.1422 65.0269 23.1422C64.8917 23.1422 64.7705 23.1795 64.686 23.2533C64.6053 23.3242 64.5471 23.4166 64.5142 23.5286L63.733 26.1534L62.9096 23.5949C62.8579 23.4362 62.7922 23.3242 62.7067 23.2533C62.6194 23.1805 62.5096 23.1431 62.38 23.1431C62.1265 23.1431 62.0204 23.2626 61.9772 23.3625C61.9209 23.4913 61.918 23.6546 61.9697 23.8544L63.226 27.6011C63.2607 27.6982 63.3246 27.7794 63.4166 27.8438C63.5086 27.9082 63.6109 27.9409 63.7208 27.9409C63.8363 27.9409 63.9414 27.9082 64.0325 27.8438C64.1264 27.7785 64.1884 27.6945 64.2166 27.5955L64.9978 24.8541L65.7433 27.5955C65.7714 27.6954 65.8353 27.7794 65.9329 27.8447C66.0268 27.9082 66.1301 27.9409 66.24 27.9409C66.3554 27.9409 66.4597 27.9082 66.5489 27.8429C66.639 27.7775 66.6991 27.6945 66.7263 27.5993L67.9817 23.8563C68.0521 23.6584 68.054 23.4904 67.9854 23.3578C67.9347 23.2598 67.8239 23.1431 67.5808 23.1431V23.1422Z" fill="#004740"/>
<path d="M73.0362 24.3015C72.8221 23.9347 72.5301 23.6416 72.1677 23.4288C71.8043 23.2159 71.3884 23.1086 70.933 23.1086C70.4776 23.1086 70.0607 23.2159 69.6945 23.4288C69.3283 23.6416 69.0345 23.9347 68.8213 24.3015C68.6072 24.6683 68.4993 25.0865 68.4993 25.5457C68.4993 26.005 68.5988 26.4194 68.7941 26.7825C68.9903 27.1465 69.2626 27.4387 69.6025 27.6515C69.9443 27.8653 70.3349 27.9736 70.763 27.9736C71.1912 27.9736 71.5827 27.8653 71.9236 27.6515C72.0635 27.5638 72.1912 27.463 72.3076 27.35V27.4266C72.3076 27.575 72.3583 27.701 72.4578 27.799C72.5573 27.8979 72.6832 27.9484 72.8334 27.9484C72.9836 27.9484 73.1094 27.8979 73.209 27.799C73.3085 27.7001 73.3592 27.5741 73.3592 27.4256V25.4841C73.3498 25.0492 73.2418 24.6515 73.0381 24.3006L73.0362 24.3015ZM71.656 26.8376C71.4456 26.9655 71.2025 27.0308 70.932 27.0308C70.6616 27.0308 70.425 26.9655 70.2119 26.8376C69.9978 26.7088 69.826 26.5305 69.702 26.3065C69.5772 26.0825 69.5143 25.8267 69.5143 25.5457C69.5143 25.2648 69.5772 25.0006 69.702 24.7766C69.826 24.5535 69.9978 24.3743 70.2119 24.2455C70.425 24.1176 70.6673 24.0523 70.932 24.0523C71.1968 24.0523 71.4456 24.1176 71.656 24.2455C71.8672 24.3743 72.0353 24.5526 72.1574 24.7757C72.2794 24.9997 72.3414 25.2592 72.3414 25.5457C72.3414 25.8323 72.2794 26.0834 72.1574 26.3074C72.0353 26.5305 71.8672 26.7097 71.656 26.8376Z" fill="#004740"/>
<path d="M77.9541 23.3597C77.6329 23.187 77.2658 23.1002 76.8621 23.1002C76.4583 23.1002 76.1203 23.1861 75.8077 23.3559C75.6987 23.4157 75.5973 23.4829 75.5034 23.5566C75.4856 23.4502 75.4396 23.3597 75.3664 23.2869C75.2696 23.1907 75.1419 23.1422 74.987 23.1422C74.8321 23.1422 74.7119 23.1907 74.6133 23.2859C74.5129 23.3821 74.4622 23.51 74.4622 23.664V27.4256C74.4622 27.5741 74.5129 27.7001 74.6124 27.7981C74.7119 27.897 74.8387 27.9474 74.988 27.9474C75.1373 27.9474 75.2715 27.897 75.3682 27.7971C75.464 27.6982 75.5128 27.5731 75.5128 27.4256V25.0473C75.5128 24.8597 75.5645 24.6917 75.6659 24.5479C75.7692 24.4014 75.9119 24.2819 76.0893 24.1932C76.2668 24.1045 76.4705 24.0597 76.6931 24.0597C76.9372 24.0597 77.156 24.1064 77.3437 24.1979C77.5268 24.2875 77.6752 24.4275 77.7841 24.6133C77.894 24.8009 77.9494 25.0492 77.9494 25.3516V27.4266C77.9494 27.575 78.0001 27.701 78.0996 27.799C78.1991 27.898 78.3249 27.9484 78.4752 27.9484C78.6254 27.9484 78.7512 27.898 78.8507 27.799C78.9503 27.7001 79.001 27.5741 79.001 27.4256V25.3507C79.001 24.8699 78.9071 24.4583 78.7221 24.1251C78.5362 23.7909 78.278 23.5333 77.955 23.3587L77.9541 23.3597Z" fill="#004740"/>
</g>
<defs>
<clipPath id="clip0_23_342">
<rect width="79" height="30" fill="white"/>
</clipPath>
</defs>
</svg>
