<svg width="225" height="86" viewBox="0 0 225 86" fill="none" xmlns="http://www.w3.org/2000/svg">
<g clip-path="url(#clip0_16_1330)">
<path d="M42.8795 83.49C65.3078 83.49 83.4895 65.3083 83.4895 42.88C83.4895 20.4517 65.3078 2.27002 42.8795 2.27002C20.4512 2.27002 2.26953 20.4517 2.26953 42.88C2.26953 65.3083 20.4512 83.49 42.8795 83.49Z" fill="#004740"/>
<path d="M69.2895 56.9201L64.1595 45.1501H66.9695C67.8795 47.5101 70.1795 49.1901 72.8495 49.1901C76.3295 49.1901 79.1595 46.3601 79.1595 42.8801C79.1595 39.4001 76.3295 36.5701 72.8495 36.5701C70.1695 36.5701 67.8795 38.2501 66.9695 40.6101H62.1795L58.0195 31.0801L61.2495 25.6101C61.5895 25.6701 61.9295 25.7001 62.2895 25.7001C65.7695 25.7001 68.5995 22.8701 68.5995 19.3901C68.5995 15.9101 65.7695 13.0801 62.2895 13.0801C58.8095 13.0801 55.9795 15.9101 55.9795 19.3901C55.9795 20.8701 56.4895 22.2201 57.3395 23.3001L55.7695 25.9501L52.2195 17.8001C50.6095 14.1101 47.0295 11.8101 42.8695 11.8101C38.7095 11.8101 35.1295 14.1101 33.5195 17.8001L31.5295 22.3701H23.8295C22.8495 20.1501 20.6295 18.5901 18.0495 18.5901C14.5695 18.5901 11.7395 21.4201 11.7395 24.9001C11.7395 28.3801 14.5695 31.2101 18.0495 31.2101C20.8295 31.2101 23.1895 29.4101 24.0295 26.9101H29.5495L23.5695 40.6101H18.4595C17.5495 38.2501 15.2495 36.5701 12.5795 36.5701C9.09953 36.5701 6.26953 39.4001 6.26953 42.8801C6.26953 46.3601 9.09953 49.1901 12.5795 49.1901C15.2595 49.1901 17.5495 47.5101 18.4595 45.1501H21.5895L10.9395 69.5601L17.8795 72.5901L29.8495 45.1501H33.8495C36.2695 45.1501 38.6595 45.7701 40.7695 46.9501L54.1195 54.4001H41.8895C38.4895 54.4001 35.4095 56.4101 34.0295 59.5101L26.0595 77.4601L30.2095 79.3001L38.1795 61.3501C38.8295 59.8901 40.2895 58.9401 41.8895 58.9401H60.5195C56.5995 60.5701 52.3695 63.4201 48.5695 68.3101C47.9295 68.0901 47.2395 67.9701 46.5195 67.9701C43.0395 67.9701 40.2095 70.8001 40.2095 74.2801C40.2095 77.7601 43.0395 80.5901 46.5195 80.5901C49.9995 80.5901 52.8295 77.7601 52.8295 74.2801C52.8295 73.1801 52.5495 72.1401 52.0495 71.2401C55.2695 67.0301 59.1195 64.1501 63.5395 62.6401L67.8795 72.5801L74.8195 69.5501L71.2695 61.4001C74.5395 61.4301 76.7495 62.1101 76.7795 62.1201L77.4695 59.9601L78.1695 57.8001C77.9995 57.7501 74.3795 56.6001 69.3195 56.9101L69.2895 56.9201ZM72.8495 40.1001C74.3795 40.1001 75.6295 41.3501 75.6295 42.8801C75.6295 44.4101 74.3795 45.6601 72.8495 45.6601C71.3195 45.6601 70.0695 44.4101 70.0695 42.8801C70.0695 41.3501 71.3195 40.1001 72.8495 40.1001ZM62.2895 16.6101C63.8195 16.6101 65.0695 17.8601 65.0695 19.3901C65.0695 20.9201 63.8195 22.1701 62.2895 22.1701C60.7595 22.1701 59.5095 20.9201 59.5095 19.3901C59.5095 17.8601 60.7595 16.6101 62.2895 16.6101ZM18.0495 27.6701C16.5195 27.6701 15.2695 26.4201 15.2695 24.8901C15.2695 23.3601 16.5195 22.1101 18.0495 22.1101C19.5795 22.1101 20.8295 23.3601 20.8295 24.8901C20.8295 26.4201 19.5795 27.6701 18.0495 27.6701ZM12.5795 45.6501C11.0495 45.6501 9.79953 44.4001 9.79953 42.8701C9.79953 41.3401 11.0495 40.0901 12.5795 40.0901C14.1095 40.0901 15.3595 41.3401 15.3595 42.8701C15.3595 44.4001 14.1095 45.6501 12.5795 45.6501ZM46.5195 77.0501C44.9895 77.0501 43.7395 75.8001 43.7395 74.2701C43.7395 72.7401 44.9895 71.4901 46.5195 71.4901C48.0495 71.4901 49.2995 72.7401 49.2995 74.2701C49.2995 75.8001 48.0495 77.0501 46.5195 77.0501ZM58.8095 51.8201L48.9995 46.3501L53.2695 39.1301L58.8095 51.8301V51.8201ZM33.8495 40.6101H31.8295L40.4595 20.8201C41.0495 19.4801 42.4595 19.3701 42.8695 19.3701C43.2795 19.3701 44.6995 19.4701 45.2795 20.8201L51.0195 33.9801L45.0295 44.1301L42.9795 42.9801C40.1895 41.4201 37.0395 40.6001 33.8495 40.6001V40.6101Z" fill="#D9F509"/>
<path d="M42.88 85.75C19.23 85.75 0 66.52 0 42.88C0 19.24 19.23 0 42.88 0C66.53 0 85.76 19.23 85.76 42.88C85.76 66.53 66.53 85.76 42.88 85.76V85.75ZM42.88 4.54C21.74 4.54 4.54 21.74 4.54 42.88C4.54 64.02 21.74 81.22 42.88 81.22C64.02 81.22 81.22 64.02 81.22 42.88C81.22 21.74 64.02 4.54 42.88 4.54Z" fill="#D9F509"/>
<path d="M99.18 27.4799L100.94 23.1799H112.03L113.76 27.4799C113.91 27.8499 114.16 28.1499 114.49 28.3599C114.82 28.5699 115.18 28.6699 115.55 28.6699C116.27 28.6699 116.81 28.3799 117.18 27.8199C117.54 27.2599 117.58 26.6299 117.31 25.9499L108.3 4.43989C107.98 3.58989 107.35 3.13989 106.47 3.13989C105.64 3.13989 105.01 3.58989 104.65 4.42989L95.67 25.8799C95.38 26.5399 95.41 27.1799 95.78 27.7699C96.15 28.3699 96.7 28.6699 97.39 28.6699C97.74 28.6699 98.08 28.5699 98.41 28.3799C98.75 28.1799 99.01 27.8799 99.18 27.4799ZM102.3 19.8699L106.53 9.51989L110.7 19.8699H102.3Z" fill="#D9F509"/>
<path d="M132.34 28.71C132.91 28.71 133.37 28.53 133.72 28.16C134.07 27.8 134.25 27.34 134.25 26.8V17.78C134.25 17.05 134.45 16.4 134.84 15.85C135.24 15.28 135.78 14.82 136.46 14.48C137.14 14.14 137.92 13.97 138.77 13.97C139.7 13.97 140.54 14.15 141.25 14.5C141.95 14.85 142.52 15.39 142.94 16.1C143.36 16.82 143.57 17.77 143.57 18.93V26.8C143.57 27.34 143.75 27.8 144.12 28.16C144.48 28.52 144.94 28.71 145.48 28.71C146.02 28.71 146.48 28.53 146.84 28.16C147.2 27.8 147.39 27.34 147.39 26.8V18.93C147.39 17.12 147.04 15.57 146.35 14.32C145.66 13.06 144.69 12.1 143.49 11.44C142.29 10.79 140.92 10.46 139.41 10.46C137.9 10.46 136.64 10.78 135.47 11.42C135.02 11.66 134.61 11.94 134.24 12.25C134.19 11.81 134.02 11.44 133.73 11.14C133.38 10.79 132.91 10.61 132.35 10.61C131.79 10.61 131.35 10.79 130.99 11.14C130.63 11.49 130.44 11.96 130.44 12.52V26.78C130.44 27.32 130.62 27.78 130.99 28.14C131.35 28.5 131.81 28.69 132.35 28.69L132.34 28.71Z" fill="#D9F509"/>
<path d="M162.721 10.6299C162.181 10.6299 161.721 10.8099 161.361 11.1599C161.001 11.5099 160.811 11.9799 160.811 12.5399V26.7699C160.811 27.3099 160.991 27.7699 161.361 28.1299C161.721 28.4899 162.181 28.6799 162.721 28.6799C163.261 28.6799 163.751 28.4999 164.101 28.1299C164.451 27.7699 164.631 27.3099 164.631 26.7699V12.5399C164.631 11.9799 164.451 11.5099 164.101 11.1599C163.751 10.8099 163.281 10.6299 162.721 10.6299Z" fill="#D9F509"/>
<path d="M162.72 8.33981C163.37 8.33981 163.94 8.09981 164.4 7.62981C164.87 7.15981 165.11 6.59981 165.11 5.94981C165.11 5.29981 164.87 4.72981 164.4 4.26981C163.93 3.79981 163.37 3.55981 162.72 3.55981C162.07 3.55981 161.5 3.79981 161.04 4.26981C160.57 4.73981 160.33 5.29981 160.33 5.94981C160.33 6.59981 160.57 7.16981 161.04 7.62981C161.51 8.09981 162.07 8.33981 162.72 8.33981Z" fill="#D9F509"/>
<path d="M191.49 28.4599C191.91 28.1099 192.14 27.6999 192.18 27.2299C192.22 26.7599 192.07 26.3299 191.75 25.9299L185.73 18.5199L191.41 13.4499C191.78 13.0999 191.98 12.6999 192.01 12.2399C192.04 11.7799 191.87 11.3599 191.53 10.9899C191.2 10.6099 190.8 10.4099 190.33 10.3799C189.86 10.3599 189.43 10.5199 189.06 10.8699L181.75 17.3899V4.9899C181.75 4.4499 181.58 3.9999 181.24 3.6599C180.9 3.3199 180.45 3.1499 179.91 3.1499C179.37 3.1499 178.92 3.3199 178.58 3.6599C178.24 3.9999 178.07 4.4499 178.07 4.9899V26.8299C178.07 27.3699 178.24 27.8199 178.58 28.1599C178.92 28.4999 179.37 28.6699 179.91 28.6699C180.45 28.6699 180.9 28.4999 181.24 28.1599C181.58 27.8199 181.75 27.3699 181.75 26.8299V22.0699L183.03 20.9299L188.93 28.2199C189.26 28.6199 189.67 28.8399 190.16 28.8799C190.21 28.8799 190.26 28.8799 190.31 28.8799C190.74 28.8799 191.14 28.7299 191.49 28.4499V28.4599Z" fill="#D9F509"/>
<path d="M209.25 27.6C210.53 28.4 211.98 28.81 213.59 28.81C215.2 28.81 216.65 28.4 217.93 27.6C218.5 27.24 219.02 26.82 219.49 26.34V26.8C219.49 27.34 219.67 27.8 220.04 28.16C220.4 28.52 220.86 28.71 221.4 28.71C221.94 28.71 222.4 28.53 222.76 28.16C223.12 27.8 223.31 27.34 223.31 26.8V19.48C223.28 17.83 222.88 16.31 222.11 14.98C221.31 13.6 220.22 12.5 218.86 11.7C217.5 10.9 215.95 10.49 214.24 10.49C212.53 10.49 210.98 10.9 209.61 11.7C208.24 12.5 207.14 13.6 206.34 14.98C205.54 16.36 205.14 17.93 205.14 19.66C205.14 21.39 205.51 22.95 206.24 24.32C206.97 25.69 207.99 26.79 209.26 27.59L209.25 27.6ZM217 24.63C216.2 25.12 215.27 25.37 214.24 25.37C213.21 25.37 212.3 25.12 211.49 24.63C210.67 24.14 210.02 23.45 209.54 22.59C209.06 21.73 208.82 20.75 208.82 19.67C208.82 18.59 209.06 17.58 209.54 16.72C210.01 15.86 210.67 15.18 211.49 14.68C212.31 14.19 213.23 13.94 214.24 13.94C215.25 13.94 216.2 14.19 217 14.68C217.81 15.17 218.45 15.86 218.92 16.72C219.39 17.58 219.62 18.58 219.62 19.67C219.62 20.76 219.38 21.73 218.92 22.59C218.46 23.45 217.81 24.13 217 24.63Z" fill="#D9F509"/>
<path d="M112.32 52.59V36.95C112.32 36.53 112.19 36.18 111.93 35.91C111.67 35.64 111.32 35.5 110.89 35.5C110.46 35.5 110.14 35.64 109.86 35.91C109.58 36.18 109.44 36.53 109.44 36.96V48.84L99.8197 36.04C99.5197 35.69 99.1497 35.51 98.6997 35.51C98.2897 35.51 97.9497 35.65 97.6797 35.92C97.4097 36.19 97.2697 36.54 97.2697 36.96V52.6C97.2697 53 97.4097 53.35 97.6797 53.63C97.9497 53.91 98.2997 54.05 98.6997 54.05C99.0997 54.05 99.4797 53.91 99.7497 53.63C100.02 53.35 100.16 53 100.16 52.6V40.75L109.78 53.54C109.92 53.71 110.1 53.85 110.31 53.93C110.52 54.01 110.71 54.05 110.9 54.05C111.32 54.05 111.67 53.91 111.94 53.62C112.2 53.34 112.33 53 112.33 52.59H112.32Z" fill="#D9F509"/>
<path d="M128.3 52.6099V42.3099C128.3 41.8899 128.17 41.5399 127.9 41.2799C127.64 41.0199 127.29 40.8799 126.87 40.8799C126.45 40.8799 126.12 41.0099 125.85 41.2699C125.58 41.5299 125.44 41.8799 125.44 42.3099V48.8199C125.44 49.3199 125.3 49.7799 125.02 50.1799C124.74 50.5899 124.35 50.9199 123.88 51.1599C123.4 51.3999 122.85 51.5299 122.23 51.5299C121.58 51.5299 120.99 51.3999 120.47 51.1499C119.96 50.8999 119.56 50.5199 119.26 49.9999C118.96 49.4799 118.81 48.7999 118.81 47.9899V42.3099C118.81 41.8999 118.67 41.5599 118.4 41.2899C118.13 41.0199 117.78 40.8799 117.38 40.8799C116.98 40.8799 116.63 41.0199 116.36 41.2899C116.09 41.5599 115.95 41.9099 115.95 42.3099V47.9899C115.95 49.3099 116.21 50.4299 116.71 51.3499C117.22 52.2699 117.92 52.9699 118.8 53.4499C119.67 53.9199 120.67 54.1599 121.77 54.1599C122.87 54.1599 123.81 53.9199 124.65 53.4599C124.94 53.2999 125.22 53.1099 125.47 52.9099C125.52 53.1899 125.65 53.4299 125.85 53.6399C126.12 53.9099 126.46 54.0499 126.87 54.0499C127.28 54.0499 127.64 53.9099 127.91 53.6399C128.17 53.3699 128.3 53.0299 128.3 52.6199V52.6099Z" fill="#D9F509"/>
<path d="M140 47.0098C139.31 46.6498 138.37 46.3398 137.2 46.1098C136.39 45.9398 135.77 45.7698 135.35 45.5998C134.97 45.4498 134.71 45.2698 134.6 45.0898C134.48 44.9098 134.42 44.7098 134.42 44.4798C134.42 44.1298 134.6 43.8798 134.98 43.6898C135.41 43.4798 135.95 43.3698 136.59 43.3698C137.15 43.3698 137.64 43.4398 138.06 43.5698C138.47 43.6998 138.85 43.9298 139.21 44.2798C139.48 44.5298 139.81 44.6898 140.19 44.7598C140.59 44.8298 140.95 44.7598 141.26 44.5498C141.57 44.3198 141.73 44.0298 141.75 43.6798C141.77 43.3398 141.65 43.0198 141.39 42.7298C140.9 42.1298 140.24 41.6498 139.42 41.3198C138.61 40.9898 137.67 40.8198 136.62 40.8198C135.81 40.8198 135.02 40.9498 134.27 41.2198C133.51 41.4898 132.88 41.8998 132.39 42.4398C131.89 42.9998 131.63 43.7098 131.63 44.5598C131.63 45.5298 132.01 46.3498 132.77 47.0098C133.5 47.6498 134.68 48.1398 136.28 48.4498C137.44 48.6598 138.24 48.9198 138.66 49.2398C139.05 49.5298 139.23 49.8498 139.22 50.2298C139.21 50.6098 139.01 50.9098 138.61 51.1598C138.18 51.4298 137.54 51.5598 136.7 51.5598C136.03 51.5598 135.42 51.4398 134.87 51.1998C134.33 50.9598 133.93 50.7098 133.69 50.4398C133.43 50.1698 133.12 49.9998 132.76 49.9598C132.39 49.9098 132.02 50.0398 131.66 50.3198C131.34 50.5598 131.16 50.8798 131.11 51.2598C131.06 51.6498 131.18 51.9998 131.47 52.3098C132 52.8398 132.75 53.2898 133.7 53.6298C134.64 53.9698 135.67 54.1398 136.78 54.1398C137.89 54.1398 138.86 53.9598 139.62 53.6098C140.39 53.2498 140.99 52.7598 141.39 52.1598C141.79 51.5498 142 50.8598 142 50.0998C142 49.4398 141.84 48.8498 141.52 48.3398C141.21 47.8298 140.69 47.3898 139.98 47.0098H140Z" fill="#D9F509"/>
<path d="M156.2 44.0798C155.62 43.0798 154.82 42.2698 153.83 41.6898C152.84 41.1098 151.71 40.8098 150.47 40.8098C149.23 40.8098 148.09 41.1098 147.1 41.6898C146.1 42.2698 145.3 43.0798 144.72 44.0798C144.14 45.0798 143.84 46.2298 143.84 47.4898C143.84 48.7498 144.11 49.8798 144.64 50.8798C145.17 51.8798 145.91 52.6798 146.84 53.2598C147.77 53.8498 148.83 54.1398 150 54.1398C151.17 54.1398 152.23 53.8398 153.16 53.2598C153.54 53.0198 153.89 52.7398 154.21 52.4298V52.6398C154.21 53.0498 154.35 53.3898 154.62 53.6598C154.89 53.9298 155.23 54.0698 155.64 54.0698C156.05 54.0698 156.39 53.9298 156.66 53.6598C156.93 53.3898 157.07 53.0498 157.07 52.6398V47.3198C157.04 46.1298 156.75 45.0398 156.19 44.0798H156.2ZM152.44 51.0198C151.87 51.3698 151.2 51.5498 150.47 51.5498C149.74 51.5498 149.09 51.3698 148.51 51.0198C147.93 50.6698 147.46 50.1798 147.12 49.5698C146.78 48.9598 146.61 48.2598 146.61 47.4898C146.61 46.7198 146.78 45.9998 147.12 45.3798C147.46 44.7698 147.92 44.2798 148.51 43.9298C149.09 43.5798 149.75 43.3998 150.47 43.3998C151.19 43.3998 151.87 43.5798 152.44 43.9298C153.01 44.2798 153.47 44.7698 153.8 45.3798C154.13 45.9898 154.3 46.6998 154.3 47.4898C154.3 48.2798 154.13 48.9598 153.8 49.5798C153.47 50.1898 153.01 50.6798 152.44 51.0298V51.0198Z" fill="#D9F509"/>
<path d="M169.59 41.4998C168.72 41.0298 167.72 40.7898 166.62 40.7898C165.52 40.7898 164.6 41.0298 163.75 41.4898C163.45 41.6498 163.18 41.8398 162.92 42.0398C162.87 41.7498 162.75 41.4998 162.55 41.2998C162.29 41.0398 161.94 40.8998 161.52 40.8998C161.1 40.8998 160.77 41.0298 160.5 41.2898C160.23 41.5498 160.09 41.8998 160.09 42.3298V52.6298C160.09 53.0398 160.23 53.3798 160.5 53.6498C160.77 53.9198 161.11 54.0598 161.52 54.0598C161.93 54.0598 162.29 53.9198 162.56 53.6498C162.82 53.3798 162.95 53.0398 162.95 52.6298V46.1198C162.95 45.6098 163.09 45.1498 163.37 44.7498C163.65 44.3498 164.04 44.0198 164.52 43.7798C165.01 43.5398 165.56 43.4098 166.16 43.4098C166.83 43.4098 167.42 43.5398 167.93 43.7898C168.43 44.0398 168.83 44.4198 169.13 44.9298C169.43 45.4398 169.58 46.1198 169.58 46.9498V52.6298C169.58 53.0398 169.72 53.3798 169.99 53.6498C170.26 53.9198 170.6 54.0598 171.01 54.0598C171.42 54.0598 171.76 53.9198 172.03 53.6498C172.3 53.3798 172.44 53.0398 172.44 52.6298V46.9498C172.44 45.6398 172.18 44.5098 171.68 43.5898C171.17 42.6698 170.47 41.9698 169.59 41.4898V41.4998Z" fill="#D9F509"/>
<path d="M176.76 37.2799C176.5 37.5399 176.36 37.8799 176.36 38.2899V41.3599H175.55C175.16 41.3599 174.84 41.4799 174.59 41.6999C174.34 41.9299 174.21 42.2399 174.21 42.6199C174.21 42.9699 174.34 43.2599 174.59 43.4999C174.84 43.7299 175.16 43.8399 175.55 43.8399H176.36V49.2899C176.36 50.1699 176.55 50.9799 176.92 51.6899C177.29 52.3999 177.81 52.9799 178.46 53.3899C179.11 53.8099 179.86 54.0199 180.67 54.0199H181.09C181.55 54.0199 181.94 53.8899 182.23 53.6399C182.54 53.3799 182.7 53.0299 182.7 52.6199C182.7 52.2099 182.58 51.8799 182.35 51.6199C182.11 51.3499 181.81 51.2099 181.46 51.2099H180.67C180.25 51.2099 179.91 51.0399 179.62 50.6799C179.32 50.3099 179.17 49.8499 179.17 49.2899V43.8399H180.88C181.27 43.8399 181.59 43.7199 181.84 43.4999C182.09 43.2699 182.22 42.9699 182.22 42.6199C182.22 42.2399 182.09 41.9299 181.84 41.6999C181.59 41.4699 181.27 41.3599 180.88 41.3599H179.17V38.2899C179.17 37.8799 179.04 37.5399 178.77 37.2799C178.51 37.0199 178.17 36.8799 177.76 36.8799C177.35 36.8799 177.01 37.0099 176.75 37.2799H176.76Z" fill="#D9F509"/>
<path d="M187.45 53.2498C188.38 53.8398 189.44 54.1298 190.61 54.1298C191.78 54.1298 192.84 53.8298 193.77 53.2498C194.15 53.0098 194.5 52.7298 194.82 52.4198V52.6298C194.82 53.0398 194.96 53.3798 195.23 53.6498C195.5 53.9198 195.84 54.0598 196.25 54.0598C196.66 54.0598 197 53.9198 197.27 53.6498C197.54 53.3798 197.68 53.0398 197.68 52.6298V47.3098C197.65 46.1198 197.36 45.0298 196.8 44.0698C196.22 43.0698 195.42 42.2598 194.43 41.6798C193.44 41.0998 192.31 40.7998 191.07 40.7998C189.83 40.7998 188.69 41.0998 187.7 41.6798C186.7 42.2598 185.9 43.0698 185.32 44.0698C184.74 45.0698 184.44 46.2198 184.44 47.4798C184.44 48.7398 184.71 49.8698 185.24 50.8698C185.77 51.8698 186.51 52.6698 187.44 53.2498H187.45ZM193.04 51.0198C192.47 51.3698 191.8 51.5498 191.07 51.5498C190.34 51.5498 189.69 51.3698 189.11 51.0198C188.53 50.6698 188.06 50.1798 187.72 49.5698C187.38 48.9598 187.21 48.2598 187.21 47.4898C187.21 46.7198 187.38 45.9998 187.72 45.3798C188.06 44.7698 188.52 44.2798 189.11 43.9298C189.69 43.5798 190.35 43.3998 191.07 43.3998C191.79 43.3998 192.47 43.5798 193.04 43.9298C193.61 44.2798 194.07 44.7698 194.4 45.3798C194.73 45.9898 194.9 46.6998 194.9 47.4898C194.9 48.2798 194.73 48.9598 194.4 49.5798C194.07 50.1898 193.61 50.6798 193.04 51.0298V51.0198Z" fill="#D9F509"/>
<path d="M208.38 43.4798C208.61 43.5298 208.83 43.5398 209.04 43.5098C209.25 43.4698 209.45 43.3798 209.61 43.2298C209.78 43.0798 209.9 42.8698 209.95 42.6098C210.04 42.2498 210.01 41.7198 209.33 41.2598C208.83 40.9298 208.11 40.7698 207.12 40.7698C206.13 40.7698 205.26 40.9998 204.46 41.4498C204.11 41.6498 203.78 41.8798 203.49 42.1398C203.46 41.7698 203.34 41.4798 203.13 41.2698C202.89 41.0298 202.54 40.9098 202.09 40.9098C201.64 40.9098 201.31 41.0398 201.06 41.2798C200.81 41.5198 200.69 41.8798 200.69 42.3098V52.6298C200.69 53.0798 200.82 53.4398 201.07 53.6798C201.32 53.9198 201.66 54.0398 202.1 54.0398C202.54 54.0398 202.91 53.9098 203.15 53.6598C203.39 53.4098 203.51 53.0698 203.51 52.6298V45.8898C203.51 45.2398 203.71 44.7298 204.12 44.3098C204.54 43.8898 205.12 43.5898 205.85 43.4298C206.6 43.2698 207.46 43.2798 208.4 43.4798H208.38Z" fill="#D9F509"/>
<path d="M224.49 47.3198C224.46 46.1298 224.17 45.0398 223.61 44.0798C223.03 43.0798 222.23 42.2698 221.24 41.6898C220.25 41.1098 219.12 40.8098 217.88 40.8098C216.64 40.8098 215.5 41.1098 214.51 41.6898C213.51 42.2698 212.71 43.0798 212.13 44.0798C211.55 45.0798 211.25 46.2298 211.25 47.4898C211.25 48.7498 211.52 49.8798 212.05 50.8798C212.58 51.8798 213.32 52.6798 214.25 53.2598C215.18 53.8498 216.24 54.1398 217.41 54.1398C218.58 54.1398 219.64 53.8398 220.57 53.2598C220.95 53.0198 221.3 52.7398 221.62 52.4298V52.6398C221.62 53.0498 221.76 53.3898 222.03 53.6598C222.3 53.9298 222.64 54.0698 223.05 54.0698C223.46 54.0698 223.8 53.9298 224.07 53.6598C224.34 53.3898 224.48 53.0498 224.48 52.6398V47.3198H224.49ZM219.86 51.0198C219.29 51.3698 218.62 51.5498 217.89 51.5498C217.16 51.5498 216.51 51.3698 215.93 51.0198C215.35 50.6698 214.88 50.1798 214.54 49.5698C214.2 48.9598 214.03 48.2598 214.03 47.4898C214.03 46.7198 214.2 45.9998 214.54 45.3798C214.88 44.7698 215.34 44.2798 215.93 43.9298C216.51 43.5798 217.17 43.3998 217.89 43.3998C218.61 43.3998 219.29 43.5798 219.86 43.9298C220.43 44.2798 220.89 44.7698 221.22 45.3798C221.55 45.9898 221.72 46.6998 221.72 47.4898C221.72 48.2798 221.55 48.9598 221.22 49.5798C220.89 50.1898 220.43 50.6798 219.86 51.0298V51.0198Z" fill="#D9F509"/>
<path d="M108.74 76.83H100.28V62.02C100.28 61.6 100.13 61.23 99.8397 60.94C99.5497 60.65 99.1897 60.5 98.7597 60.5C98.3297 60.5 97.9997 60.65 97.7097 60.94C97.4197 61.23 97.2697 61.59 97.2697 62.02V78.34C97.2697 78.76 97.4097 79.12 97.6897 79.42C97.9697 79.71 98.3297 79.86 98.7597 79.86H108.74C109.16 79.86 109.53 79.71 109.82 79.42C110.11 79.13 110.26 78.77 110.26 78.34C110.26 77.91 110.11 77.55 109.82 77.26C109.53 76.97 109.17 76.82 108.74 76.82V76.83Z" fill="#D9F509"/>
<path d="M124.72 69.4598C124.11 68.4098 123.28 67.5698 122.25 66.9698C121.22 66.3598 120.04 66.0498 118.74 66.0498C117.44 66.0498 116.26 66.3598 115.22 66.9698C114.18 67.5798 113.34 68.4198 112.74 69.4598C112.13 70.5098 111.82 71.6998 111.82 73.0198C111.82 74.3398 112.1 75.5198 112.66 76.5598C113.22 77.5998 113.99 78.4398 114.96 79.0498C115.93 79.6598 117.04 79.9698 118.26 79.9698C119.48 79.9698 120.59 79.6598 121.56 79.0498C121.96 78.7998 122.32 78.5098 122.65 78.1898V78.4098C122.65 78.8298 122.79 79.1898 123.08 79.4798C123.36 79.7598 123.72 79.9098 124.15 79.9098C124.58 79.9098 124.93 79.7698 125.22 79.4798C125.5 79.1998 125.65 78.8398 125.65 78.4098V72.8598C125.62 71.6198 125.32 70.4798 124.74 69.4798L124.72 69.4598ZM120.8 76.7098C120.2 77.0798 119.51 77.2598 118.74 77.2598C117.97 77.2598 117.3 77.0698 116.69 76.7098C116.08 76.3398 115.59 75.8298 115.24 75.1898C114.89 74.5498 114.71 73.8198 114.71 73.0098C114.71 72.1998 114.89 71.4498 115.24 70.8098C115.59 70.1698 116.08 69.6598 116.69 69.2898C117.3 68.9198 117.98 68.7398 118.74 68.7398C119.5 68.7398 120.2 68.9298 120.8 69.2898C121.4 69.6598 121.88 70.1698 122.22 70.8098C122.57 71.4498 122.74 72.1898 122.74 73.0098C122.74 73.8298 122.56 74.5498 122.22 75.1898C121.87 75.8298 121.39 76.3398 120.79 76.7098H120.8Z" fill="#D9F509"/>
<path d="M138.7 66.7698C137.79 66.2798 136.74 66.0298 135.6 66.0298C134.46 66.0298 133.49 66.2798 132.6 66.7598C132.29 66.9298 132 67.1198 131.74 67.3298C131.69 67.0298 131.56 66.7698 131.35 66.5598C131.07 66.2798 130.71 66.1498 130.27 66.1498C129.83 66.1498 129.49 66.2898 129.21 66.5598C128.92 66.8398 128.78 67.1998 128.78 67.6398V78.3898C128.78 78.8098 128.92 79.1698 129.21 79.4598C129.49 79.7398 129.85 79.8898 130.28 79.8898C130.71 79.8898 131.09 79.7498 131.36 79.4598C131.63 79.1798 131.77 78.8198 131.77 78.3998V71.5998C131.77 71.0598 131.92 70.5798 132.2 70.1698C132.49 69.7498 132.9 69.4098 133.4 69.1598C133.9 68.9098 134.48 68.7798 135.11 68.7798C135.8 68.7798 136.43 68.9098 136.96 69.1698C137.48 69.4298 137.9 69.8298 138.21 70.3598C138.52 70.8998 138.68 71.5998 138.68 72.4698V78.3998C138.68 78.8198 138.82 79.1798 139.11 79.4698C139.39 79.7498 139.75 79.8998 140.18 79.8998C140.61 79.8998 140.96 79.7598 141.25 79.4698C141.53 79.1898 141.68 78.8298 141.68 78.3998V72.4698C141.68 71.0998 141.41 69.9198 140.89 68.9698C140.36 68.0098 139.63 67.2798 138.71 66.7798L138.7 66.7698Z" fill="#D9F509"/>
<path d="M157.47 69.4098C156.88 68.3698 156.05 67.5398 155.02 66.9498C153.99 66.3598 152.79 66.0598 151.47 66.0598C150.15 66.0598 148.92 66.3598 147.89 66.9498C146.86 67.5398 146.03 68.3698 145.44 69.4098C144.85 70.4498 144.55 71.6698 144.55 73.0198C144.55 74.3698 144.83 75.5598 145.38 76.5998C145.93 77.6398 146.7 78.4698 147.66 79.0598C148.62 79.6498 149.74 79.9598 150.99 79.9598C152.15 79.9598 153.19 79.6598 154.08 79.0598C154.61 78.6998 155.08 78.2598 155.48 77.7398V78.0598C155.48 79.0598 155.3 79.9098 154.93 80.5898C154.57 81.2598 154.08 81.7798 153.48 82.1198C152.87 82.4698 152.2 82.6398 151.48 82.6398C150.69 82.6398 149.97 82.4898 149.35 82.2098C148.73 81.9198 148.21 81.5198 147.81 81.0098C147.58 80.6998 147.27 80.4998 146.89 80.4298C146.51 80.3498 146.14 80.4298 145.78 80.6598C145.47 80.8798 145.27 81.1698 145.2 81.5298C145.13 81.8898 145.22 82.2498 145.48 82.5898C146.19 83.4898 147.08 84.1798 148.11 84.6398C149.14 85.0998 150.25 85.3398 151.42 85.3398C152.78 85.3398 154 85.0198 155.04 84.3898C156.08 83.7598 156.9 82.8898 157.49 81.8198C158.07 80.7498 158.37 79.5398 158.37 78.2298V72.8298C158.34 71.5498 158.04 70.3998 157.48 69.4098H157.47ZM153.55 76.7198C152.95 77.0798 152.25 77.2598 151.47 77.2598C150.69 77.2598 149.99 77.0798 149.39 76.7198C148.79 76.3598 148.31 75.8598 147.97 75.2298C147.62 74.5998 147.45 73.8498 147.45 73.0198C147.45 72.1898 147.63 71.4398 147.97 70.7898C148.32 70.1498 148.79 69.6498 149.39 69.2898C149.99 68.9298 150.69 68.7498 151.47 68.7498C152.25 68.7498 152.95 68.9298 153.55 69.2898C154.15 69.6498 154.62 70.1498 154.96 70.7898C155.3 71.4298 155.47 72.1798 155.47 73.0198C155.47 73.8598 155.3 74.5998 154.96 75.2298C154.62 75.8598 154.15 76.3598 153.55 76.7198Z" fill="#D9F509"/>
<path d="M171.29 66.9398C170.26 66.3498 169.06 66.0498 167.74 66.0498C166.42 66.0498 165.19 66.3498 164.16 66.9398C163.13 67.5298 162.3 68.3598 161.71 69.3998C161.12 70.4398 160.82 71.6598 160.82 73.0098C160.82 74.3598 161.12 75.5598 161.71 76.5998C162.3 77.6398 163.13 78.4698 164.16 79.0598C165.19 79.6498 166.4 79.9498 167.74 79.9498C169.08 79.9498 170.29 79.6498 171.32 79.0598C172.35 78.4698 173.17 77.6398 173.76 76.5998C174.34 75.5598 174.64 74.3498 174.64 73.0098C174.64 71.6698 174.34 70.4398 173.75 69.3998C173.16 68.3598 172.33 67.5298 171.3 66.9398H171.29ZM169.82 76.7198C169.22 77.0798 168.52 77.2598 167.74 77.2598C166.96 77.2598 166.26 77.0798 165.66 76.7198C165.06 76.3598 164.58 75.8598 164.24 75.2298C163.89 74.5998 163.72 73.8498 163.72 73.0198C163.72 72.1898 163.9 71.4398 164.24 70.7898C164.59 70.1498 165.06 69.6498 165.66 69.2898C166.26 68.9298 166.96 68.7498 167.74 68.7498C168.52 68.7498 169.22 68.9298 169.82 69.2898C170.42 69.6498 170.89 70.1498 171.23 70.7898C171.57 71.4298 171.74 72.1798 171.74 73.0198C171.74 73.8598 171.57 74.5998 171.23 75.2298C170.89 75.8598 170.42 76.3598 169.82 76.7198Z" fill="#D9F509"/>
<path d="M192.04 66.1499C191.53 66.1499 190.86 66.3699 190.54 67.4399L188.17 74.8599L186.22 67.2699C186.14 66.9399 185.98 66.6699 185.74 66.4699C185.49 66.2599 185.17 66.1599 184.79 66.1599C184.41 66.1599 184.06 66.2699 183.82 66.4799C183.59 66.6799 183.42 66.9499 183.33 67.2699L181.11 74.7699L178.77 67.4599C178.62 67.0099 178.44 66.6899 178.19 66.4799C177.94 66.2699 177.63 66.1699 177.26 66.1699C176.54 66.1699 176.24 66.5099 176.11 66.7999C175.95 67.1699 175.94 67.6299 176.09 68.2099L179.66 78.9199C179.76 79.1999 179.94 79.4299 180.2 79.6099C180.46 79.7899 180.75 79.8899 181.06 79.8899C181.39 79.8899 181.69 79.7999 181.95 79.6099C182.22 79.4199 182.39 79.1799 182.47 78.8999L184.69 71.0599L186.81 78.8999C186.89 79.1899 187.07 79.4299 187.35 79.6099C187.62 79.7899 187.91 79.8799 188.22 79.8799C188.55 79.8799 188.84 79.7899 189.1 79.5999C189.36 79.4099 189.53 79.1699 189.6 78.8999L193.17 68.1999C193.37 67.6299 193.37 67.1499 193.18 66.7699C193.04 66.4899 192.72 66.1599 192.03 66.1599L192.04 66.1499Z" fill="#D9F509"/>
<path d="M207.54 69.4598C206.93 68.4098 206.1 67.5698 205.07 66.9698C204.04 66.3598 202.86 66.0498 201.56 66.0498C200.26 66.0498 199.08 66.3598 198.04 66.9698C197 67.5798 196.16 68.4198 195.56 69.4598C194.95 70.5098 194.64 71.6998 194.64 73.0198C194.64 74.3398 194.92 75.5198 195.48 76.5598C196.04 77.5998 196.81 78.4398 197.78 79.0498C198.75 79.6598 199.86 79.9698 201.08 79.9698C202.3 79.9698 203.41 79.6598 204.38 79.0498C204.78 78.7998 205.14 78.5098 205.47 78.1898V78.4098C205.47 78.8298 205.61 79.1898 205.9 79.4798C206.18 79.7598 206.54 79.9098 206.97 79.9098C207.4 79.9098 207.75 79.7698 208.04 79.4798C208.32 79.1998 208.47 78.8398 208.47 78.4098V72.8598C208.44 71.6198 208.14 70.4798 207.56 69.4798L207.54 69.4598ZM203.62 76.7098C203.02 77.0798 202.33 77.2598 201.56 77.2598C200.79 77.2598 200.12 77.0698 199.51 76.7098C198.9 76.3398 198.41 75.8298 198.06 75.1898C197.71 74.5498 197.53 73.8198 197.53 73.0098C197.53 72.1998 197.71 71.4498 198.06 70.8098C198.41 70.1698 198.9 69.6598 199.51 69.2898C200.12 68.9198 200.8 68.7398 201.56 68.7398C202.32 68.7398 203.02 68.9298 203.62 69.2898C204.22 69.6598 204.7 70.1698 205.04 70.8098C205.39 71.4498 205.56 72.1898 205.56 73.0098C205.56 73.8298 205.38 74.5498 205.04 75.1898C204.69 75.8298 204.21 76.3398 203.61 76.7098H203.62Z" fill="#D9F509"/>
<path d="M221.52 66.7698C220.61 66.2798 219.56 66.0298 218.42 66.0298C217.28 66.0298 216.31 66.2798 215.42 66.7598C215.11 66.9298 214.82 67.1198 214.56 67.3298C214.51 67.0298 214.38 66.7698 214.17 66.5598C213.89 66.2798 213.53 66.1498 213.09 66.1498C212.65 66.1498 212.31 66.2898 212.03 66.5598C211.74 66.8398 211.6 67.1998 211.6 67.6398V78.3898C211.6 78.8098 211.74 79.1698 212.03 79.4598C212.31 79.7398 212.67 79.8898 213.1 79.8898C213.53 79.8898 213.91 79.7498 214.18 79.4598C214.45 79.1798 214.59 78.8198 214.59 78.3998V71.5998C214.59 71.0598 214.74 70.5798 215.02 70.1698C215.31 69.7498 215.72 69.4098 216.22 69.1598C216.72 68.9098 217.3 68.7798 217.93 68.7798C218.62 68.7798 219.25 68.9098 219.78 69.1698C220.3 69.4298 220.72 69.8298 221.03 70.3598C221.34 70.8998 221.5 71.5998 221.5 72.4698V78.3998C221.5 78.8198 221.64 79.1798 221.93 79.4698C222.21 79.7498 222.57 79.8998 223 79.8998C223.43 79.8998 223.78 79.7598 224.07 79.4698C224.35 79.1898 224.5 78.8298 224.5 78.3998V72.4698C224.5 71.0998 224.23 69.9198 223.71 68.9698C223.18 68.0098 222.45 67.2798 221.53 66.7798L221.52 66.7698Z" fill="#D9F509"/>
</g>
<defs>
<clipPath id="clip0_16_1330">
<rect width="224.49" height="85.75" fill="white"/>
</clipPath>
</defs>
</svg>
