<svg width="225" height="80" viewBox="0 0 225 80" fill="none" xmlns="http://www.w3.org/2000/svg">
<g clip-path="url(#clip0_1_747)">
<path d="M11.1055 62.8293V9.54454L3.85865 7.08346C1.96341 6.44263 0 7.84701 0 9.84451V76.5186C0 78.5366 2.00431 79.9478 3.89955 79.266L30.0988 69.8717C31.2578 69.4558 32.0349 68.3514 32.0349 67.1243V60.6273L14.8347 65.6244C12.9667 66.1698 11.1055 64.7654 11.1055 62.8225V62.8293Z" fill="#1B1C32"/>
<path d="M51.7031 50.1624L33.8961 35.4981C32.8326 34.6255 32.8326 32.9962 33.8961 32.1167L51.9145 17.2821C53.6802 15.8231 53.162 12.9939 50.9873 12.2645L14.9505 0.156775C13.0621 -0.477243 11.1055 0.92714 11.1055 2.92464V9.55115L30.0034 15.9663C31.1828 16.3685 31.9804 17.4798 31.9804 18.7274L32.0281 60.6407L50.6601 55.2277C52.9098 54.5732 53.5097 51.6622 51.7031 50.176V50.1624Z" fill="#10C0FE"/>
<path d="M29.9965 15.9596L11.0987 9.54443V62.8292C11.0987 64.7721 12.9667 66.1765 14.8278 65.6311L32.0213 60.634L31.9736 18.7206C31.9736 17.4731 31.1759 16.3618 29.9965 15.9596Z" fill="#0533F9"/>
<path d="M68.6648 33.1601V18.2505H71.7735V24.1475L77.0434 18.2505L80.8816 18.2641L75.3186 24.393L81.2293 33.1669H77.6501L73.3074 26.6427L71.7735 28.3061V33.1669H68.6648V33.1601Z" fill="white"/>
<path d="M82.7976 29.6557V25.2449C82.7976 22.9133 83.9634 21.7476 86.3017 21.7476H89.3287C91.6602 21.7476 92.8328 22.9133 92.8328 25.2449V29.6557C92.8328 31.9873 91.667 33.1599 89.3287 33.1599H86.3017C83.9702 33.1599 82.7976 31.9941 82.7976 29.6557ZM85.7836 29.8739C85.7836 30.3375 86.0154 30.5625 86.4722 30.5625H89.1514C89.615 30.5625 89.84 30.3307 89.84 29.8739V25.0335C89.84 24.57 89.6082 24.345 89.1514 24.345H86.4722C86.0086 24.345 85.7836 24.5768 85.7836 25.0335V29.8739Z" fill="white"/>
<path d="M95.5935 29.656V25.2451C95.5935 22.9136 96.7593 21.7478 99.0976 21.7478H102.425V17.1665H105.404V33.1601H99.0908C96.7593 33.1601 95.5867 31.9943 95.5867 29.656H95.5935ZM98.5727 29.8741C98.5727 30.3377 98.8045 30.5627 99.2613 30.5627H102.418V24.3384H99.2613C98.7977 24.3384 98.5727 24.5702 98.5727 25.027V29.8673V29.8741Z" fill="white"/>
<path d="M108.342 29.6557V25.2449C108.342 22.9133 109.507 21.7476 111.846 21.7476H114.654C116.986 21.7476 118.159 22.9133 118.159 25.2449V28.5513H111.328V29.8671C111.328 30.3307 111.559 30.5556 112.016 30.5556H117.722V33.1462H111.846C109.514 33.1462 108.342 31.9805 108.342 29.6421V29.6557ZM111.321 26.2675H115.166V25.0335C115.166 24.57 114.934 24.345 114.477 24.345H112.016C111.553 24.345 111.328 24.5768 111.328 25.0335V26.2675H111.321Z" fill="white"/>
<path d="M125.242 21.0593V18.2505H137.431V21.0593H132.891V33.1601H129.782V21.0593H125.242Z" fill="white"/>
<path d="M138.468 29.6557V25.2449C138.468 22.9133 139.633 21.7476 141.972 21.7476H144.781C147.112 21.7476 148.285 22.9133 148.285 25.2449V28.5513H141.454V29.8671C141.454 30.3307 141.685 30.5556 142.142 30.5556H147.848L147.828 33.1462H141.972C139.64 33.1462 138.468 31.9805 138.468 29.6421V29.6557ZM141.447 26.2675H145.292V25.0335C145.292 24.57 145.06 24.345 144.603 24.345H142.142C141.679 24.345 141.454 24.5768 141.454 25.0335V26.2675H141.447Z" fill="white"/>
<path d="M151.217 33.1601V17.1665H154.196V26.0496L158.15 21.7478H161.818L157.366 26.4995L161.988 33.1533H158.47L155.402 28.6402L154.196 29.9559V33.1533H151.217V33.1601Z" fill="white"/>
<path d="M163.747 33.1599V21.7476H170.059C172.391 21.7476 173.557 22.9133 173.557 25.2449V33.1531H170.578V25.0267C170.578 24.5631 170.346 24.3382 169.889 24.3382H166.733V33.1531H163.753L163.747 33.1599Z" fill="white"/>
<path d="M176.413 29.6557V25.2449C176.413 22.9133 177.579 21.7476 179.917 21.7476H182.944C185.275 21.7476 186.441 22.9133 186.441 25.2449V29.6557C186.441 31.9873 185.275 33.1599 182.944 33.1599H179.917C177.585 33.1599 176.413 31.9941 176.413 29.6557ZM179.392 29.8739C179.392 30.3375 179.624 30.5625 180.081 30.5625H182.76C183.223 30.5625 183.448 30.3307 183.448 29.8739V25.0335C183.448 24.57 183.217 24.345 182.76 24.345H180.081C179.617 24.345 179.392 24.5768 179.392 25.0335V29.8739Z" fill="white"/>
<path d="M189.292 29.0083V17.1665H192.271V29.3083C192.271 30.2014 192.735 30.6922 193.655 30.7808V33.3715C190.744 33.3715 189.292 31.9193 189.292 29.0083Z" fill="white"/>
<path d="M195.904 29.6557V25.2449C195.904 22.9133 197.07 21.7476 199.408 21.7476H202.435C204.767 21.7476 205.933 22.9133 205.933 25.2449V29.6557C205.933 31.9873 204.767 33.1599 202.435 33.1599H199.408C197.077 33.1599 195.904 31.9941 195.904 29.6557ZM198.883 29.8739C198.883 30.3375 199.115 30.5625 199.572 30.5625H202.251C202.715 30.5625 202.94 30.3307 202.94 29.8739V25.0335C202.94 24.57 202.708 24.345 202.251 24.345H199.572C199.108 24.345 198.883 24.5768 198.883 25.0335V29.8739Z" fill="white"/>
<path d="M208.612 29.6557V25.2449C208.612 22.9133 209.778 21.7476 212.109 21.7476H218.422V33.978C218.422 36.3095 217.256 37.4821 214.918 37.4821H209.594L209.58 34.8915H214.748C215.211 34.8915 215.436 34.6597 215.436 34.2029V33.1667H212.109C209.778 33.1667 208.612 32.0009 208.612 29.6626V29.6557ZM211.591 29.8739C211.591 30.3375 211.823 30.5625 212.28 30.5625H215.436V24.3382H212.28C211.816 24.3382 211.591 24.57 211.591 25.0267V29.8671V29.8739Z" fill="white"/>
<path d="M221.381 19.8729V16.9551H224.49V19.8729H221.381ZM221.442 33.16V21.7477H224.421V33.16H221.442Z" fill="white"/>
<path d="M68.6648 62.4954V43.0386H72.728V50.7354L79.6067 43.0386L84.6107 43.0522L77.3502 51.049L85.0674 62.4954H80.3975L74.7323 53.9805L72.728 56.1552V62.5022H68.6648V62.4954Z" fill="white"/>
<path d="M87.113 57.9207V52.1668C87.113 49.1194 88.6333 47.5991 91.6807 47.5991H95.628C98.6753 47.5991 100.196 49.1194 100.196 52.1668V57.9207C100.196 60.968 98.6753 62.4883 95.628 62.4883H91.6807C88.6333 62.4883 87.113 60.968 87.113 57.9207ZM90.999 58.207C90.999 58.8069 91.2989 59.1069 91.8989 59.1069H95.3962C95.9961 59.1069 96.2961 58.8069 96.2961 58.207V51.8873C96.2961 51.2873 95.9961 50.9874 95.3962 50.9874H91.8989C91.2989 50.9874 90.999 51.2873 90.999 51.8873V58.207Z" fill="white"/>
<path d="M104.027 62.4951V47.606H121.002C124.05 47.606 125.57 49.1262 125.57 52.1736V62.4951H121.677V51.8941C121.677 51.2942 121.377 50.9942 120.777 50.9942H116.742V62.502H112.849V50.9942H107.913V62.502H104.02L104.027 62.4951Z" fill="white"/>
<path d="M129.523 62.495V41.627H133.416V47.6058H137.759C140.806 47.6058 142.326 49.1261 142.326 52.1735V57.9273C142.326 60.9747 140.806 62.495 137.759 62.495H129.523ZM133.416 59.1068H137.534C138.134 59.1068 138.434 58.8068 138.434 58.2069V51.8871C138.434 51.2872 138.134 50.9872 137.534 50.9872H133.416V59.1068Z" fill="white"/>
<path d="M146.076 45.1518V41.3477H150.139V45.1518H146.076ZM146.158 62.4952V47.606H150.05V62.4952H146.158Z" fill="white"/>
<path d="M154.114 62.4951V47.606H162.349C165.397 47.606 166.917 49.1262 166.917 52.1736V62.4951H163.024V51.8941C163.024 51.2942 162.724 50.9942 162.124 50.9942H158.007V62.502H154.114V62.4951Z" fill="white"/>
<path d="M174.642 62.4951C171.594 62.4951 170.074 61.0021 170.074 58.0093C170.074 55.0165 171.594 53.5235 174.642 53.5235H178.534V51.8873C178.534 51.2873 178.234 50.9874 177.634 50.9874H171.656L171.683 47.606H177.859C180.907 47.606 182.427 49.1262 182.427 52.1736V62.4951H174.642ZM173.967 58.207C173.967 58.8069 174.267 59.1069 174.867 59.1069H178.534V56.5095H174.867C174.267 56.5095 173.967 56.8094 173.967 57.4094V58.2002V58.207Z" fill="white"/>
<path d="M185.863 59.1069H192.346C192.987 59.1069 193.308 58.7524 193.308 58.0366C193.308 57.3207 193.042 56.8912 192.517 56.7958L189.469 56.2913C187.063 55.8755 185.863 54.4847 185.863 52.1191C185.863 49.1126 187.383 47.606 190.431 47.606H196.498V50.9874H190.656C190.015 50.9874 189.694 51.3419 189.694 52.0577C189.694 52.8076 189.988 53.2303 190.567 53.3258L193.587 53.8302C195.973 54.2256 197.166 55.5959 197.166 57.9479C197.166 60.9749 195.632 62.4883 192.571 62.4883H185.863V59.1069Z" fill="white"/>
<path d="M200.609 45.1518V41.3477H204.672V45.1518H200.609ZM200.698 62.4952V47.606H204.59V62.4952H200.698Z" fill="white"/>
</g>
<defs>
<clipPath id="clip0_1_747">
<rect width="224.49" height="79.4431" fill="white"/>
</clipPath>
</defs>
</svg>
