<svg width="131" height="46" viewBox="0 0 131 46" fill="none" xmlns="http://www.w3.org/2000/svg">
<g clip-path="url(#clip0_1_533)">
<path d="M6.48 36.3751V5.5267L2.25046 4.10151C1.14509 3.73044 0 4.54483 0 5.70074V44.3088C0 45.4779 1.16825 46.2955 2.27694 45.8982L17.5668 40.4602C18.2453 40.2204 18.6954 39.5801 18.6954 38.8675V35.1075L8.65766 38.0006C7.56883 38.3158 6.48 37.5047 6.48 36.3784V36.3751Z" fill="#1B227D"/>
<path d="M30.1699 29.0455L19.778 20.5535C19.1592 20.0478 19.1592 19.1054 19.778 18.5964L30.289 10.0059C31.3216 9.16191 31.0171 7.52327 29.7496 7.09966L8.72431 0.0886637C7.62225 -0.279126 6.48047 0.535266 6.48047 1.69118V5.5267L17.5077 9.244C18.1961 9.47716 18.6627 10.1175 18.6627 10.8432L18.6925 35.1108L29.5642 31.978C30.8781 31.6004 31.2289 29.9158 30.1732 29.0521L30.1699 29.0455Z" fill="#10C0FE"/>
<path d="M17.504 9.24072L6.47669 5.52341V36.3751C6.47669 37.5014 7.56552 38.3125 8.65434 37.9973L18.6888 35.1042L18.659 10.8367C18.659 10.1142 18.1923 9.47059 17.504 9.23744V9.24072Z" fill="#0533F9"/>
<path d="M40.0681 19.2006V10.5674H41.8851V13.9826L44.9629 10.5674L47.2001 10.574L43.9535 14.1205L47.4053 19.2006H45.317L42.7819 15.4209L41.8851 16.3831V19.1973H40.0681V19.2006Z" fill="#1B227D"/>
<path d="M48.3154 17.1712V14.6196C48.3154 13.27 48.9972 12.5935 50.3574 12.5935H52.1213C53.4815 12.5935 54.1633 13.27 54.1633 14.6196V17.1712C54.1633 18.5241 53.4815 19.1973 52.1213 19.1973H50.3574C48.9972 19.1973 48.3154 18.5208 48.3154 17.1712ZM50.0562 17.2993C50.0562 17.5652 50.1919 17.6999 50.46 17.6999H52.0221C52.2901 17.6999 52.4258 17.5652 52.4258 17.2993V14.4949C52.4258 14.2289 52.2901 14.0942 52.0221 14.0942H50.46C50.1919 14.0942 50.0562 14.2289 50.0562 14.4949V17.2993Z" fill="#1B227D"/>
<path d="M55.782 17.1712V14.6196C55.782 13.27 56.4638 12.5935 57.824 12.5935H59.7667V9.94018H61.5075V19.2006H57.824C56.4638 19.2006 55.782 18.5241 55.782 17.1745V17.1712ZM57.5228 17.2993C57.5228 17.5652 57.6585 17.6999 57.9266 17.6999H59.7667V14.0975H57.9266C57.6585 14.0975 57.5228 14.2322 57.5228 14.4981V17.3025V17.2993Z" fill="#1B227D"/>
<path d="M63.2214 17.1712V14.6196C63.2214 13.27 63.9032 12.5935 65.2634 12.5935H66.9016C68.2651 12.5935 68.9435 13.27 68.9435 14.6196V16.5341H64.9589V17.296C64.9589 17.562 65.0946 17.6966 65.3627 17.6966H68.692V19.1973H65.2634C63.9032 19.1973 63.2214 18.5208 63.2214 17.1712ZM64.9622 15.2075H67.206V14.4949C67.206 14.2289 67.0704 14.0942 66.8023 14.0942H65.366C65.0979 14.0942 64.9622 14.2289 64.9622 14.4949V15.2075Z" fill="#1B227D"/>
<path d="M73.0808 12.1929V10.5674H80.193V12.1929H77.5454V19.2006H75.7284V12.1929H73.0808Z" fill="#1B227D"/>
<path d="M80.7986 17.1712V14.6196C80.7986 13.27 81.4804 12.5935 82.8406 12.5935H84.4788C85.839 12.5935 86.5207 13.27 86.5207 14.6196V16.5341H82.5361V17.296C82.5361 17.562 82.6718 17.6966 82.9398 17.6966H86.2692L86.256 19.1973H82.8406C81.4804 19.1973 80.7986 18.5208 80.7986 17.1712ZM82.5394 15.2075H84.7832V14.4949C84.7832 14.2289 84.6476 14.0942 84.3795 14.0942H82.9432C82.6751 14.0942 82.5394 14.2289 82.5394 14.4949V15.2075Z" fill="#1B227D"/>
<path d="M88.2381 19.2006V9.94018H89.9789V15.0827L92.2856 12.5935H94.4268L91.8322 15.3454L94.5294 19.2006H92.4742L90.6838 16.5867L89.9789 17.3485V19.2006H88.2381Z" fill="#1B227D"/>
<path d="M95.5524 19.2006V12.5935H99.2358C100.596 12.5935 101.278 13.27 101.278 14.6196V19.2006H99.537V14.4949C99.537 14.2289 99.4013 14.0942 99.1332 14.0942H97.2932V19.2006H95.5524Z" fill="#1B227D"/>
<path d="M102.942 17.1712V14.6196C102.942 13.27 103.624 12.5935 104.984 12.5935H106.748C108.108 12.5935 108.79 13.27 108.79 14.6196V17.1712C108.79 18.5241 108.108 19.1973 106.748 19.1973H104.984C103.621 19.1973 102.942 18.5208 102.942 17.1712ZM104.683 17.2993C104.683 17.5652 104.819 17.6999 105.087 17.6999H106.649C106.917 17.6999 107.053 17.5652 107.053 17.2993V14.4949C107.053 14.2289 106.917 14.0942 106.649 14.0942H105.087C104.819 14.0942 104.683 14.2289 104.683 14.4949V17.2993Z" fill="#1B227D"/>
<path d="M110.459 16.7968V9.94018H112.2V16.9709C112.2 17.4897 112.468 17.7721 113.007 17.8214V19.3221C111.309 19.3221 110.459 18.4782 110.459 16.7935V16.7968Z" fill="#1B227D"/>
<path d="M114.317 17.1712V14.6196C114.317 13.27 114.999 12.5935 116.359 12.5935H118.123C119.483 12.5935 120.165 13.27 120.165 14.6196V17.1712C120.165 18.5241 119.483 19.1973 118.123 19.1973H116.359C114.996 19.1973 114.317 18.5208 114.317 17.1712ZM116.058 17.2993C116.058 17.5652 116.194 17.6999 116.462 17.6999H118.024C118.292 17.6999 118.428 17.5652 118.428 17.2993V14.4949C118.428 14.2289 118.292 14.0942 118.024 14.0942H116.462C116.194 14.0942 116.058 14.2289 116.058 14.4949V17.2993Z" fill="#1B227D"/>
<path d="M121.73 17.1712V14.6196C121.73 13.27 122.412 12.5935 123.772 12.5935H127.456V19.6768C127.456 21.0264 126.774 21.7029 125.414 21.7029H122.306L122.299 20.2022H125.314C125.583 20.2022 125.718 20.0675 125.718 19.8015V19.2006H123.776C122.415 19.2006 121.734 18.5241 121.734 17.1745L121.73 17.1712ZM123.471 17.2993C123.471 17.5652 123.607 17.6999 123.875 17.6999H125.715V14.0975H123.875C123.607 14.0975 123.471 14.2322 123.471 14.4981V17.3025V17.2993Z" fill="#1B227D"/>
<path d="M129.184 11.5033V9.81539H131V11.5033H129.184ZM129.22 19.2006V12.5935H130.961V19.2006H129.22Z" fill="#1B227D"/>
<path d="M40.0681 36.1846V24.9178H42.4377V29.3739L46.4522 24.9178L49.3745 24.9243L45.1383 29.5545L49.6425 36.1846H46.9155L43.6093 31.2523L42.4411 32.51V36.1846H40.0714H40.0681Z" fill="#1B227D"/>
<path d="M50.8306 33.5378V30.208C50.8306 28.4446 51.7209 27.5645 53.4948 27.5645H55.7982C57.5754 27.5645 58.4623 28.4446 58.4623 30.208V33.5378C58.4623 35.3013 57.5721 36.1813 55.7982 36.1813H53.4948C51.7176 36.1813 50.8306 35.3013 50.8306 33.5378ZM53.101 33.702C53.101 34.0501 53.2764 34.2242 53.6272 34.2242H55.6691C56.0199 34.2242 56.1953 34.0501 56.1953 33.702V30.0438C56.1953 29.6957 56.0199 29.5217 55.6691 29.5217H53.6272C53.2764 29.5217 53.101 29.6957 53.101 30.0438V33.702Z" fill="#1B227D"/>
<path d="M60.7029 36.1846V27.5645H70.6082C72.3854 27.5645 73.2724 28.4446 73.2724 30.208V36.1846H71.002V30.0438C71.002 29.6957 70.8266 29.5217 70.4758 29.5217H68.1228V36.1846H65.8525V29.5217H62.9732V36.1846H60.7029Z" fill="#1B227D"/>
<path d="M75.5791 36.1846V24.1034H77.8494V27.5645H80.3845C82.1617 27.5645 83.0486 28.4446 83.0486 30.208V33.5378C83.0486 35.3013 82.1617 36.1813 80.3845 36.1813H75.5791V36.1846ZM77.8494 34.2242H80.2521C80.6029 34.2242 80.7783 34.0501 80.7783 33.702V30.0438C80.7783 29.6957 80.6029 29.5217 80.2521 29.5217H77.8494V34.2242Z" fill="#1B227D"/>
<path d="M85.239 26.1426V23.9392H87.6086V26.1426H85.239ZM85.2887 36.1846V27.5645H87.559V36.1846H85.2887Z" fill="#1B227D"/>
<path d="M89.9295 36.1846V27.5645H94.7349C96.5121 27.5645 97.399 28.4446 97.399 30.208V36.1846H95.1287V30.0438C95.1287 29.6957 94.9533 29.5217 94.6025 29.5217H92.1998V36.1846H89.9295Z" fill="#1B227D"/>
<path d="M101.909 36.1846C100.132 36.1846 99.2449 35.3177 99.2449 33.5871C99.2449 31.8565 100.132 30.9896 101.909 30.9896H104.179V30.0438C104.179 29.6957 104.004 29.5217 103.653 29.5217H100.165L100.178 27.5612H103.786C105.563 27.5612 106.45 28.4413 106.45 30.2047V36.1813H101.909V36.1846ZM101.512 33.702C101.512 34.0501 101.687 34.2242 102.038 34.2242H104.176V32.7234H102.038C101.687 32.7234 101.512 32.8975 101.512 33.2456V33.702Z" fill="#1B227D"/>
<path d="M108.456 34.2242H112.242C112.616 34.2242 112.801 34.0173 112.801 33.6035C112.801 33.1898 112.649 32.9402 112.341 32.8844L110.564 32.5921C109.161 32.3524 108.459 31.5478 108.459 30.1752C108.459 28.4348 109.349 27.5645 111.123 27.5645H114.664V29.525H111.256C110.882 29.525 110.696 29.7319 110.696 30.1456C110.696 30.5824 110.865 30.8254 111.206 30.8812L112.967 31.1735C114.36 31.4033 115.055 32.198 115.055 33.5575C115.055 35.3111 114.161 36.1846 112.374 36.1846H108.459V34.2242H108.456Z" fill="#1B227D"/>
<path d="M117.063 26.1426V23.9392H119.433V26.1426H117.063ZM117.113 36.1846V27.5645H119.383V36.1846H117.113Z" fill="#1B227D"/>
</g>
<defs>
<clipPath id="clip0_1_533">
<rect width="131" height="46" fill="white"/>
</clipPath>
</defs>
</svg>
